<svg width="350" height="277" viewBox="0 0 350 277" fill="none" xmlns="http://www.w3.org/2000/svg">
<g clip-path="url(#clip0_655_1064)">
<path d="M0 174.24L16.36 131.36H25.47L41.64 174.24H32.38L28.69 164.5H12.72L8.98 174.24H0ZM15.54 156.24H26.29L21.06 142.05H20.82L15.54 156.24Z" fill="#262628"/>
<path d="M58.04 174.87C55.03 174.87 52.39 174.19 50.1 172.83C47.81 171.47 46.02 169.56 44.73 167.09C43.44 164.62 42.79 161.71 42.79 158.36C42.79 155.01 43.43 152.1 44.71 149.63C45.99 147.16 47.78 145.25 50.08 143.89C52.38 142.53 55.04 141.85 58.04 141.85C61.94 141.85 65.15 142.94 67.66 145.13C70.17 147.32 71.71 150.28 72.29 154.02H63.46C63.08 152.86 62.43 151.95 61.52 151.29C60.61 150.64 59.45 150.31 58.04 150.31C56.15 150.31 54.61 151.01 53.41 152.4C52.21 153.79 51.61 155.78 51.61 158.36C51.61 160.94 52.22 162.92 53.43 164.32C54.64 165.71 56.18 166.41 58.04 166.41C61.08 166.41 62.93 165.02 63.6 162.23H72.43C71.92 166.15 70.42 169.24 67.92 171.49C65.43 173.75 62.13 174.88 58.04 174.88V174.87Z" fill="#262628"/>
<path d="M89.2197 174.87C86.2097 174.87 83.5697 174.19 81.2797 172.83C78.9897 171.47 77.1997 169.56 75.9097 167.09C74.6197 164.62 73.9697 161.71 73.9697 158.36C73.9697 155.01 74.6097 152.1 75.8897 149.63C77.1697 147.16 78.9597 145.25 81.2597 143.89C83.5597 142.53 86.2197 141.85 89.2197 141.85C93.1197 141.85 96.3297 142.94 98.8397 145.13C101.35 147.32 102.89 150.28 103.47 154.02H94.6397C94.2597 152.86 93.6097 151.95 92.6997 151.29C91.7897 150.64 90.6297 150.31 89.2197 150.31C87.3297 150.31 85.7897 151.01 84.5897 152.4C83.3897 153.79 82.7897 155.78 82.7897 158.36C82.7897 160.94 83.3997 162.92 84.6097 164.32C85.8197 165.71 87.3597 166.41 89.2197 166.41C92.2597 166.41 94.1097 165.02 94.7797 162.23H103.61C103.1 166.15 101.6 169.24 99.0997 171.49C96.6097 173.75 93.3097 174.88 89.2197 174.88V174.87Z" fill="#262628"/>
<path d="M120.69 174.87C117.52 174.87 114.77 174.19 112.44 172.83C110.11 171.47 108.31 169.55 107.04 167.06C105.78 164.57 105.14 161.63 105.14 158.25C105.14 154.87 105.76 151.94 106.99 149.49C108.22 147.04 109.98 145.15 112.27 143.83C114.56 142.51 117.25 141.84 120.35 141.84C123.45 141.84 126.06 142.48 128.27 143.77C130.48 145.06 132.16 146.9 133.33 149.3C134.5 151.7 135.08 154.58 135.08 157.93V161.05H113.64C113.99 163.1 114.76 164.64 115.94 165.68C117.12 166.72 118.69 167.24 120.64 167.24C122.21 167.24 123.43 166.97 124.31 166.42C125.19 165.87 125.82 165 126.21 163.8H135.04C134.43 167.26 132.87 169.97 130.34 171.93C127.81 173.89 124.6 174.87 120.7 174.87H120.69ZM113.78 154.7H126.64C126.35 152.94 125.69 151.62 124.65 150.76C123.61 149.9 122.2 149.46 120.4 149.46C118.6 149.46 117.2 149.9 116.08 150.78C114.96 151.66 114.19 152.97 113.78 154.7Z" fill="#262628"/>
<path d="M152.45 174.87C148.13 174.87 144.74 173.86 142.26 171.85C139.78 169.84 138.45 167.03 138.26 163.43H146.75C147.01 164.84 147.62 165.88 148.6 166.55C149.58 167.22 150.99 167.56 152.85 167.56C155.73 167.56 157.17 166.73 157.17 165.07C157.17 164.4 156.95 163.86 156.52 163.46C156.09 163.06 155.38 162.75 154.39 162.53L147.96 161.15C142.08 159.88 139.13 156.84 139.13 152.05C139.13 148.95 140.26 146.47 142.54 144.61C144.81 142.76 147.94 141.83 151.94 141.83C155.94 141.83 159.09 142.78 161.39 144.69C163.69 146.6 164.94 149.28 165.13 152.74H156.64C156.32 151.36 155.75 150.37 154.94 149.75C154.12 149.13 152.93 148.82 151.37 148.82C150.09 148.82 149.11 149.01 148.42 149.4C147.73 149.79 147.39 150.37 147.39 151.15C147.39 151.71 147.6 152.19 148.01 152.58C148.43 152.97 149.05 153.25 149.88 153.43L156.5 154.86C159.57 155.53 161.82 156.63 163.26 158.14C164.7 159.66 165.42 161.7 165.42 164.28C165.42 167.6 164.31 170.19 162.09 172.06C159.87 173.93 156.66 174.87 152.47 174.87H152.45Z" fill="#262628"/>
<path d="M182.67 174.87C178.35 174.87 174.96 173.86 172.48 171.85C170 169.84 168.67 167.03 168.48 163.43H176.97C177.23 164.84 177.84 165.88 178.82 166.55C179.8 167.22 181.21 167.56 183.07 167.56C185.95 167.56 187.39 166.73 187.39 165.07C187.39 164.4 187.17 163.86 186.74 163.46C186.31 163.06 185.6 162.75 184.61 162.53L178.18 161.15C172.3 159.88 169.35 156.84 169.35 152.05C169.35 148.95 170.48 146.47 172.76 144.61C175.03 142.76 178.16 141.83 182.16 141.83C186.16 141.83 189.31 142.78 191.61 144.69C193.91 146.6 195.16 149.28 195.35 152.74H186.86C186.54 151.36 185.97 150.37 185.16 149.75C184.34 149.13 183.15 148.82 181.59 148.82C180.31 148.82 179.33 149.01 178.64 149.4C177.95 149.79 177.61 150.37 177.61 151.15C177.61 151.71 177.82 152.19 178.23 152.58C178.65 152.97 179.27 153.25 180.1 153.43L186.72 154.86C189.79 155.53 192.04 156.63 193.48 158.14C194.92 159.66 195.64 161.7 195.64 164.28C195.64 167.6 194.53 170.19 192.31 172.06C190.09 173.93 186.88 174.87 182.69 174.87H182.67Z" fill="#262628"/>
<path d="M204.3 139.78C202.99 139.78 201.87 139.27 200.94 138.24C200.01 137.22 199.55 135.98 199.55 134.53C199.55 133.08 200.01 131.85 200.94 130.82C201.87 129.8 202.99 129.28 204.3 129.28C205.61 129.28 206.73 129.79 207.66 130.82C208.59 131.84 209.05 133.08 209.05 134.53C209.05 135.98 208.59 137.21 207.66 138.24C206.73 139.26 205.61 139.78 204.3 139.78ZM199.89 174.24V142.48H208.72V174.24H199.89Z" fill="#262628"/>
<path d="M233.95 174.87C231.52 174.87 229.43 174.35 227.69 173.31C225.95 172.27 224.56 170.81 223.54 168.94H221.53V174.23H212.7V164.7H217.02V129.76H225.85V146.54H226.04C226.87 145.06 228.01 143.9 229.47 143.07C230.93 142.24 232.68 141.83 234.72 141.83C237.5 141.83 239.87 142.52 241.82 143.89C243.77 145.27 245.26 147.2 246.28 149.69C247.3 152.18 247.82 155.06 247.82 158.34C247.82 161.62 247.29 164.45 246.24 166.94C245.18 169.43 243.63 171.37 241.59 172.76C239.54 174.15 237 174.85 233.96 174.85L233.95 174.87ZM232.27 166.4C234.54 166.4 236.23 165.68 237.33 164.23C238.43 162.78 238.99 160.82 238.99 158.35C238.99 155.88 238.44 153.92 237.33 152.47C236.23 151.02 234.54 150.3 232.27 150.3C230.29 150.3 228.72 150.91 227.57 152.13C226.42 153.35 225.84 155.03 225.84 157.19V159.52C225.84 161.67 226.42 163.36 227.57 164.58C228.72 165.8 230.29 166.41 232.27 166.41V166.4Z" fill="#262628"/>
<path d="M256.59 139.78C255.28 139.78 254.16 139.27 253.23 138.24C252.3 137.22 251.84 135.98 251.84 134.53C251.84 133.08 252.3 131.85 253.23 130.82C254.16 129.8 255.28 129.28 256.59 129.28C257.9 129.28 259.02 129.79 259.95 130.82C260.88 131.84 261.34 133.08 261.34 134.53C261.34 135.98 260.88 137.21 259.95 138.24C259.02 139.26 257.9 139.78 256.59 139.78ZM252.17 174.24V142.48H261V174.24H252.17Z" fill="#262628"/>
<path d="M267.04 174.24V129.77H275.87V174.24H267.04Z" fill="#262628"/>
<path d="M286.33 139.78C285.02 139.78 283.9 139.27 282.97 138.24C282.04 137.22 281.58 135.98 281.58 134.53C281.58 133.08 282.04 131.85 282.97 130.82C283.9 129.8 285.02 129.28 286.33 129.28C287.64 129.28 288.76 129.79 289.69 130.82C290.62 131.84 291.08 133.08 291.08 134.53C291.08 135.98 290.62 137.21 289.69 138.24C288.76 139.26 287.64 139.78 286.33 139.78ZM281.91 174.24V142.48H290.74V174.24H281.91Z" fill="#262628"/>
<path d="M306.47 174.24C304.23 174.24 302.5 173.61 301.26 172.36C300.03 171.11 299.41 169.19 299.41 166.62V150.1H294.61V142.48H299.5V132.95H308.13V142.48H314.46V150.1H308.22V166.62H315.13V174.24H306.45H306.47Z" fill="#262628"/>
<path d="M319.76 186.94V179.11H325.9L327.87 173.87L315.64 142.48H324.99L332.47 162.75H332.66L340 142.48H349.11L336.73 174.24L334.57 179.9C333.71 182.16 332.67 183.9 331.48 185.11C330.28 186.33 328.51 186.94 326.18 186.94H319.75H319.76Z" fill="#262628"/>
<path d="M69.2197 231.24V188.36H81.3597L92.1997 217.16H92.3897L103.18 188.36H115.27V231.24H106.25V202.76H106.06L95.8397 231.24H88.0697L77.8497 202.76H77.6597V231.24H69.2197Z" fill="#262628"/>
<path d="M135.99 231.87C132.82 231.87 130.07 231.19 127.74 229.83C125.41 228.47 123.61 226.55 122.34 224.06C121.08 221.57 120.44 218.63 120.44 215.25C120.44 211.87 121.06 208.94 122.29 206.49C123.52 204.04 125.28 202.15 127.57 200.83C129.86 199.51 132.55 198.84 135.65 198.84C138.75 198.84 141.36 199.48 143.57 200.77C145.78 202.06 147.46 203.9 148.63 206.3C149.8 208.7 150.38 211.58 150.38 214.93V218.05H128.94C129.29 220.1 130.06 221.64 131.24 222.68C132.42 223.72 133.99 224.24 135.94 224.24C137.51 224.24 138.73 223.97 139.61 223.42C140.49 222.87 141.12 222 141.51 220.8H150.34C149.73 224.26 148.17 226.97 145.64 228.93C143.11 230.89 139.9 231.87 136 231.87H135.99ZM129.08 211.7H141.94C141.65 209.94 140.99 208.62 139.95 207.76C138.91 206.9 137.5 206.46 135.7 206.46C133.9 206.46 132.5 206.9 131.38 207.78C130.26 208.66 129.49 209.97 129.08 211.7Z" fill="#262628"/>
<path d="M168.61 231.87C165.44 231.87 162.69 231.19 160.36 229.83C158.03 228.47 156.23 226.55 154.96 224.06C153.7 221.57 153.06 218.63 153.06 215.25C153.06 211.87 153.68 208.94 154.91 206.49C156.14 204.04 157.9 202.15 160.19 200.83C162.48 199.51 165.17 198.84 168.27 198.84C171.37 198.84 173.98 199.48 176.19 200.77C178.4 202.06 180.08 203.9 181.25 206.3C182.42 208.7 183 211.58 183 214.93V218.05H161.56C161.91 220.1 162.68 221.64 163.86 222.68C165.04 223.72 166.61 224.24 168.56 224.24C170.13 224.24 171.35 223.97 172.23 223.42C173.11 222.87 173.74 222 174.13 220.8H182.96C182.35 224.26 180.79 226.97 178.26 228.93C175.73 230.89 172.52 231.87 168.62 231.87H168.61ZM161.7 211.7H174.56C174.27 209.94 173.61 208.62 172.57 207.76C171.53 206.9 170.12 206.46 168.32 206.46C166.52 206.46 165.12 206.9 164 207.78C162.88 208.66 162.11 209.97 161.7 211.7Z" fill="#262628"/>
<path d="M197.06 231.24C194.82 231.24 193.09 230.61 191.85 229.36C190.62 228.11 190 226.19 190 223.62V207.1H185.2V199.48H190.09V189.95H198.72V199.48H205.05V207.1H198.81V223.62H205.72V231.24H197.04H197.06Z" fill="#262628"/>
<path d="M222.19 231.82C218.06 231.82 214.93 230.65 212.79 228.3C210.65 225.95 209.58 222.75 209.58 218.69V199.47H218.41V216.78C218.41 218.93 218.9 220.53 219.87 221.57C220.85 222.61 222.32 223.13 224.31 223.13C226.3 223.13 227.97 222.56 229.06 221.41C230.15 220.26 230.69 218.61 230.69 216.46V199.47H239.52V221.7H243.84V231.23H235.01V225.94H233C231.82 227.85 230.41 229.3 228.78 230.31C227.15 231.32 224.96 231.82 222.21 231.82H222.19Z" fill="#262628"/>
<path d="M249.1 243.94V209H244.78V199.47H253.61V204.76H255.62C256.64 202.89 258.03 201.43 259.77 200.39C261.51 199.35 263.6 198.83 266.03 198.83C269.07 198.83 271.61 199.53 273.66 200.92C275.71 202.31 277.26 204.25 278.31 206.72C279.37 209.19 279.89 212.07 279.89 215.35C279.89 218.63 279.38 221.52 278.35 224.01C277.33 226.5 275.84 228.43 273.89 229.81C271.94 231.19 269.57 231.87 266.79 231.87C264.74 231.87 262.99 231.45 261.54 230.63C260.08 229.8 258.94 228.65 258.11 227.16H257.92V243.94H249.09H249.1ZM264.36 223.4C266.63 223.4 268.32 222.68 269.42 221.23C270.52 219.78 271.08 217.82 271.08 215.35C271.08 212.88 270.53 210.92 269.42 209.47C268.32 208.02 266.63 207.3 264.36 207.3C262.38 207.3 260.81 207.91 259.66 209.13C258.51 210.35 257.93 212.03 257.93 214.19V216.52C257.93 218.67 258.51 220.36 259.66 221.58C260.81 222.8 262.38 223.41 264.36 223.41V223.4Z" fill="#262628"/>
<path d="M111.31 275.64V252.66H115.16V275.64H111.31ZM114.6 268.48V264.82H118.68C119.53 264.82 120.24 264.64 120.81 264.27C121.38 263.91 121.81 263.4 122.11 262.75C122.41 262.1 122.56 261.37 122.56 260.56C122.56 259.75 122.41 258.99 122.11 258.36C121.81 257.72 121.37 257.22 120.81 256.86C120.24 256.5 119.53 256.31 118.68 256.31H114.6V252.65H118.34C120.08 252.65 121.55 252.96 122.75 253.59C123.95 254.22 124.87 255.1 125.51 256.25C126.15 257.4 126.47 258.75 126.47 260.31V260.81C126.47 262.37 126.15 263.73 125.51 264.87C124.87 266.02 123.95 266.9 122.75 267.53C121.55 268.16 120.08 268.47 118.34 268.47H114.6V268.48Z" fill="#262628"/>
<path d="M139.53 276.23C137.66 276.23 136.04 275.87 134.67 275.14C133.3 274.41 132.17 273.46 131.28 272.28C130.39 271.1 129.73 269.83 129.28 268.47C128.84 267.11 128.61 265.79 128.61 264.51V263.82C128.61 262.42 128.84 261.04 129.29 259.66C129.74 258.28 130.43 257.03 131.34 255.89C132.26 254.75 133.39 253.85 134.74 253.17C136.09 252.49 137.68 252.15 139.51 252.15C141.34 252.15 142.9 252.49 144.26 253.17C145.62 253.85 146.74 254.75 147.66 255.89C148.58 257.03 149.26 258.28 149.71 259.66C150.16 261.04 150.39 262.42 150.39 263.82V264.51C150.39 265.78 150.17 267.1 149.72 268.47C149.28 269.84 148.61 271.11 147.72 272.28C146.83 273.46 145.7 274.41 144.33 275.14C142.96 275.87 141.35 276.23 139.5 276.23H139.53ZM139.53 272.29C140.61 272.29 141.57 272.08 142.43 271.65C143.29 271.22 144.03 270.63 144.64 269.88C145.25 269.13 145.72 268.27 146.04 267.3C146.36 266.33 146.52 265.29 146.52 264.19C146.52 263.02 146.35 261.95 146.02 260.97C145.69 259.99 145.22 259.14 144.62 258.41C144.02 257.68 143.28 257.11 142.41 256.71C141.54 256.3 140.58 256.1 139.52 256.1C138.46 256.1 137.45 256.3 136.59 256.71C135.73 257.12 134.99 257.69 134.38 258.41C133.77 259.14 133.3 259.99 132.99 260.97C132.68 261.95 132.52 263.02 132.52 264.19C132.52 265.3 132.68 266.33 132.99 267.3C133.3 268.27 133.76 269.13 134.38 269.88C134.99 270.63 135.73 271.22 136.59 271.65C137.45 272.08 138.43 272.29 139.52 272.29H139.53Z" fill="#262628"/>
<path d="M152.59 275.64V271.83L164.23 256.42L164.26 257.08L163.44 255.86L163.98 256.33H152.93V252.83H168.34V256.64L156.7 272.05L156.62 271.3L157.55 272.71L156.87 272.15H168.51V275.65H152.59V275.64Z" fill="#262628"/>
<path d="M172.25 275.64V252.82H178.54L187.52 272.11H188.46L187.89 272.67V252.82H191.52V275.64H185.17L176.22 256.35H175.26L175.83 255.79V275.64H172.26H172.25Z" fill="#262628"/>
<path d="M194.69 275.64L201.77 252.82H208.06L215.4 275.64H211.43L205.17 255.69L206.61 256.38H203.1L204.57 255.69L198.51 275.64H194.69ZM199.53 269.48L200.75 265.88H209.22L210.41 269.48H199.53Z" fill="#262628"/>
<path d="M218.54 275.64V252.82H224.83L233.81 272.11H234.75L234.18 272.67V252.82H237.81V275.64H231.46L222.51 256.35H221.55L222.12 255.79V275.64H218.55H218.54ZM226.53 251.06L230.1 245.65H234.24L230.05 251.06H226.54H226.53Z" fill="#262628"/>
<path d="M153.82 0H128.15V105.15H153.82V0Z" fill="#262628"/>
<path d="M153.93 105.15H133.31L191.19 0H211.81L153.93 105.15Z" fill="#262628"/>
<path d="M216.74 105.15H196.12L254 0H274.62L216.74 105.15Z" fill="#262628"/>
<path d="M89.8397 105.15H69.2197L127.1 0H147.72L89.8397 105.15Z" fill="#262628"/>
<path d="M101.88 105.35H69.2197L120.72 62.8501L133.31 82.7301L101.88 105.35Z" fill="#262628"/>
<path d="M216.86 0H191.19V105.15H216.86V0Z" fill="#262628"/>
<path d="M279.9 0H254.23V105.15H279.9V0Z" fill="#262628"/>
</g>
<defs>
<clipPath id="clip0_655_1064">
<rect width="349.12" height="276.23" fill="white"/>
</clipPath>
</defs>
</svg>
