<svg width="600" height="120" viewBox="0 0 600 120" fill="none" xmlns="http://www.w3.org/2000/svg">
<path fill-rule="evenodd" clip-rule="evenodd" d="M0 8.37705C0 4.30282 3.30282 1 7.37705 1H66.3934C70.4677 1 73.7705 4.30282 73.7705 8.37705C73.7705 12.4513 70.4677 15.7541 66.3934 15.7541H7.37704C3.30281 15.7541 0 12.4513 0 8.37705ZM19.6721 32.9672C19.6721 28.893 22.9749 25.5902 27.0492 25.5902H100.82C104.894 25.5902 108.197 28.893 108.197 32.9672C108.197 37.0414 104.894 40.3443 100.82 40.3443H27.0492C22.9749 40.3443 19.6721 37.0414 19.6721 32.9672ZM27.0492 50.1803C22.9749 50.1803 19.6721 53.4831 19.6721 57.5574C19.6721 61.6316 22.9749 64.9344 27.0492 64.9344H100.82C104.894 64.9344 108.197 61.6316 108.197 57.5574C108.197 53.4831 104.894 50.1803 100.82 50.1803H27.0492ZM19.6721 82.1475C19.6721 78.0733 22.9749 74.7705 27.0492 74.7705H100.82C104.894 74.7705 108.197 78.0733 108.197 82.1475C108.197 86.2218 104.894 89.5246 100.82 89.5246H27.0492C22.9749 89.5246 19.6721 86.2218 19.6721 82.1475ZM7.37705 99.3607C3.30282 99.3607 0 102.663 0 106.738C0 110.812 3.30281 114.115 7.37704 114.115H66.3934C70.4677 114.115 73.7705 110.812 73.7705 106.738C73.7705 102.663 70.4677 99.3607 66.3934 99.3607H7.37705ZM83.6066 106.738C83.6066 102.663 86.9094 99.3607 90.9836 99.3607C95.0578 99.3607 98.3606 102.663 98.3606 106.738C98.3606 110.812 95.0578 114.115 90.9836 114.115C86.9094 114.115 83.6066 110.812 83.6066 106.738ZM161.797 89.9118C166.19 92.6393 171.182 94.0031 176.772 94.0031C181.804 94.0031 185.877 93.0004 188.992 90.9948C192.187 88.9892 194.742 86.6627 196.659 84.0154L198.336 92.5591H211.993V5.91803H196.659V41.0558C194.583 38.0073 191.867 35.6407 188.513 33.9561C185.158 32.2714 181.245 31.429 176.772 31.429C171.182 31.429 166.19 32.7928 161.797 35.5204C157.405 38.1678 153.93 41.858 151.375 46.5912C148.819 51.2442 147.541 56.579 147.541 62.5957C147.541 68.6125 148.819 73.9874 151.375 78.7206C153.93 83.4538 157.405 87.1842 161.797 89.9118ZM192.107 75.5919C188.992 78.8811 184.959 80.5256 180.007 80.5256C175.135 80.5256 171.102 78.841 167.907 75.4716C164.712 72.1022 163.115 67.8103 163.115 62.5957C163.115 57.3812 164.712 53.1294 167.907 49.8403C171.102 46.5511 175.135 44.9065 180.007 44.9065C184.959 44.9065 188.992 46.5912 192.107 49.9606C195.301 53.2497 196.899 57.5016 196.899 62.7161C196.899 67.9306 195.301 72.2225 192.107 75.5919ZM235.755 90.1524C240.387 92.7196 245.699 94.0031 251.689 94.0031C256.481 94.0031 260.753 93.1207 264.507 91.3558C268.341 89.5909 271.535 87.1842 274.091 84.1357C276.727 81.007 278.604 77.5574 279.722 73.7869H264.148C263.109 76.0331 261.512 77.8783 259.356 79.3223C257.279 80.6861 254.684 81.368 251.569 81.368C247.416 81.368 243.862 80.0443 240.907 77.3969C238.031 74.7496 236.434 71.0994 236.114 66.4465H281.279C281.359 65.4036 281.399 64.4008 281.399 63.4381C281.479 62.4754 281.519 61.5528 281.519 60.6704C281.519 55.2152 280.241 50.2815 277.685 45.8692C275.209 41.3767 271.735 37.8469 267.263 35.2797C262.79 32.7126 257.639 31.429 251.808 31.429C245.579 31.429 240.148 32.7928 235.515 35.5204C230.963 38.1678 227.369 41.8982 224.733 46.7115C222.178 51.5249 220.9 57.0202 220.9 63.1974C220.9 69.2944 222.218 74.6693 224.853 79.3223C227.489 83.9752 231.123 87.5853 235.755 90.1524ZM241.865 47.1929C244.74 45.0269 248.055 43.9438 251.808 43.9438C255.722 43.9438 258.996 45.1071 261.632 47.4336C264.268 49.76 265.705 52.8887 265.945 56.8197H236.354C237.153 52.4876 238.99 49.2787 241.865 47.1929ZM281.534 32.873H297.587L312.682 77.9986L327.777 32.873H343.83L321.906 92.5591H303.337L281.534 32.873ZM357.149 91.4761C361.143 93.1608 365.775 94.0031 371.046 94.0031C376.157 94.0031 380.59 93.1608 384.344 91.4761C388.098 89.7914 390.973 87.465 392.969 84.4967C394.966 81.5284 395.924 78.1992 395.845 74.5089C395.845 70.2571 394.806 67.008 392.73 64.7618C390.653 62.4353 387.858 60.7105 384.344 59.5874C380.91 58.384 377.116 57.301 372.963 56.3383C369.129 55.4559 366.054 54.4932 363.738 53.4503C361.422 52.4074 360.264 51.0035 360.264 49.2386C360.264 47.5539 361.023 46.15 362.54 45.0269C364.137 43.9037 366.374 43.3422 369.249 43.3422C374.999 43.3422 378.314 45.5483 379.192 49.9606H393.688C392.89 44.1845 390.374 39.6519 386.141 36.3628C381.988 33.0736 376.397 31.429 369.369 31.429C361.781 31.429 355.871 33.234 351.638 36.8441C347.485 40.4541 345.409 44.9065 345.409 50.2013C345.409 53.0893 346.088 55.5361 347.445 57.5417C348.803 59.467 350.56 61.0715 352.717 62.3551C354.953 63.5584 357.389 64.5612 360.024 65.3634C362.66 66.1657 365.256 66.8476 367.811 67.4091C371.805 68.2916 374.92 69.2142 377.156 70.1768C379.392 71.0593 380.51 72.7841 380.51 75.3512C380.51 77.1161 379.712 78.6805 378.114 80.0443C376.597 81.4081 374.161 82.09 370.806 82.09C367.452 82.09 364.697 81.2878 362.54 79.6833C360.464 77.9986 359.186 75.993 358.707 73.6666H343.252C343.732 77.6777 345.169 81.2075 347.565 84.256C349.961 87.3045 353.156 89.7112 357.149 91.4761ZM429.241 92.5591C423.011 92.5591 418.02 91.0349 414.266 87.9864C410.512 84.9379 408.635 79.5228 408.635 71.7412V45.7489H398.452V32.873H408.635L410.432 16.8685H423.97V32.873H440.023V45.7489H423.97V71.8615C423.97 74.7496 424.569 76.7551 425.767 77.8783C427.044 78.9212 429.201 79.4426 432.236 79.4426H439.663V92.5591H429.241ZM469.601 88.5881L455.824 119.033H472.117L509.854 32.873H493.561L476.19 74.8699L459.538 32.873H442.886L466.007 88.5881H469.601ZM515.087 92.5591V5.91803H530.421V92.5591H515.087ZM554.236 90.1524C558.869 92.7196 564.18 94.0031 570.17 94.0031C574.962 94.0031 579.235 93.1207 582.988 91.3558C586.822 89.5909 590.017 87.1842 592.572 84.1357C595.208 81.007 597.085 77.5574 598.203 73.7869H582.629C581.591 76.0331 579.993 77.8783 577.837 79.3223C575.76 80.6861 573.165 81.368 570.05 81.368C565.897 81.368 562.343 80.0443 559.388 77.3969C556.513 74.7496 554.915 71.0994 554.596 66.4465H599.76C599.84 65.4036 599.88 64.4008 599.88 63.4381C599.96 62.4754 600 61.5528 600 60.6704C600 55.2152 598.722 50.2815 596.166 45.8692C593.69 41.3767 590.216 37.8469 585.744 35.2797C581.271 32.7126 576.12 31.429 570.29 31.429C564.06 31.429 558.629 32.7928 553.997 35.5204C549.444 38.1678 545.85 41.8982 543.215 46.7115C540.659 51.5249 539.381 57.0202 539.381 63.1974C539.381 69.2944 540.699 74.6693 543.335 79.3223C545.97 83.9752 549.604 87.5853 554.236 90.1524ZM560.346 47.1929C563.221 45.0269 566.536 43.9438 570.29 43.9438C574.203 43.9438 577.478 45.1071 580.113 47.4336C582.749 49.76 584.186 52.8887 584.426 56.8197H554.835C555.634 52.4876 557.471 49.2787 560.346 47.1929Z" fill="black"/>
</svg>
