<?xml version="1.0" encoding="UTF-8"?>
<svg id="Warstwa_1" data-name="Warstwa 1" xmlns="http://www.w3.org/2000/svg" xmlns:xlink="http://www.w3.org/1999/xlink" viewBox="0 0 356 430.71">
  <defs>
    <style>
      .cls-1 {
        fill: url(#Gradient_bez_nazwy_368);
      }

      .cls-1, .cls-2, .cls-3, .cls-4, .cls-5 {
        stroke: #2d343c;
      }

      .cls-1, .cls-2, .cls-3, .cls-4, .cls-5, .cls-6 {
        stroke-miterlimit: 10;
      }

      .cls-1, .cls-2, .cls-4, .cls-5 {
        stroke-width: 8px;
      }

      .cls-7 {
        fill: url(#Gradient_bez_nazwy_194);
      }

      .cls-7, .cls-8, .cls-9 {
        stroke-width: 0px;
      }

      .cls-2 {
        fill: url(#Gradient_bez_nazwy_357);
      }

      .cls-3 {
        fill: url(#Gradient_bez_nazwy_14);
        stroke-width: 14px;
      }

      .cls-4 {
        fill: url(#Gradient_bez_nazwy_355);
      }

      .cls-5 {
        fill: url(#Gradient_bez_nazwy_365);
      }

      .cls-8 {
        fill: #2f323b;
      }

      .cls-9 {
        fill: url(#Gradient_bez_nazwy_319);
      }

      .cls-6 {
        fill: none;
        stroke: #2b323a;
        stroke-width: 20px;
      }
    </style>
    <linearGradient id="Gradient_bez_nazwy_14" data-name="Gradient bez nazwy 14" x1="67.8" y1="203.83" x2="290.36" y2="203.83" gradientUnits="userSpaceOnUse">
      <stop offset="0" stop-color="#b1831b"/>
      <stop offset=".1" stop-color="#bc9029"/>
      <stop offset=".32" stop-color="#d2aa45"/>
      <stop offset=".55" stop-color="#e1bd59"/>
      <stop offset=".78" stop-color="#eac865"/>
      <stop offset="1" stop-color="#eecc6a"/>
    </linearGradient>
    <linearGradient id="Gradient_bez_nazwy_368" data-name="Gradient bez nazwy 368" x1="130.38" y1="98.73" x2="230.67" y2="98.73" gradientUnits="userSpaceOnUse">
      <stop offset=".24" stop-color="#eecc6a"/>
      <stop offset=".38" stop-color="#e2bd5a"/>
      <stop offset=".61" stop-color="#b1831b"/>
    </linearGradient>
    <linearGradient id="Gradient_bez_nazwy_357" data-name="Gradient bez nazwy 357" x1="212.78" y1="43.31" x2="230.39" y2="55.05" gradientUnits="userSpaceOnUse">
      <stop offset=".21" stop-color="#eecc6a"/>
      <stop offset=".73" stop-color="#b1831b"/>
    </linearGradient>
    <linearGradient id="Gradient_bez_nazwy_355" data-name="Gradient bez nazwy 355" x1="148.31" y1="43.54" x2="214.73" y2="43.54" gradientUnits="userSpaceOnUse">
      <stop offset=".44" stop-color="#eecc6a"/>
      <stop offset=".65" stop-color="#b18317"/>
    </linearGradient>
    <linearGradient id="Gradient_bez_nazwy_365" data-name="Gradient bez nazwy 365" x1="100.3" y1="51.91" x2="170.35" y2="51.91" gradientUnits="userSpaceOnUse">
      <stop offset=".28" stop-color="#f1f1ba"/>
      <stop offset=".53" stop-color="#ecc967"/>
      <stop offset=".76" stop-color="#b5881b"/>
    </linearGradient>
    <linearGradient id="Gradient_bez_nazwy_194" data-name="Gradient bez nazwy 194" x1="74.83" y1="183.1" x2="160.33" y2="183.1" gradientUnits="userSpaceOnUse">
      <stop offset=".12" stop-color="#b78a1d"/>
      <stop offset=".43" stop-color="#efce6f"/>
      <stop offset=".87" stop-color="#f3eeb5"/>
      <stop offset="1" stop-color="#f4f3c0"/>
    </linearGradient>
    <linearGradient id="Gradient_bez_nazwy_319" data-name="Gradient bez nazwy 319" x1="75.76" y1="208.7" x2="283.21" y2="208.7" gradientUnits="userSpaceOnUse">
      <stop offset=".67" stop-color="#bb8f23"/>
      <stop offset=".94" stop-color="#b88a1e"/>
    </linearGradient>
  </defs>
  <path class="cls-6" d="m10,295.78V90.87h88.7"/>
  <path class="cls-6" d="m346,296c0-66.3,0-138.83,0-205.14-29.57,0-59.13,0-88.7,0"/>
  <path class="cls-3" d="m231.79,295.79h-108.63c-12.97,0-25.7-4.02-36.03-11.87-5.69-4.32-9.32-8.68-11.68-12.13-23.32-34.09,9.75-117.22,57.58-159.91,15.5,1.71,28.03,1.39,46.86,1.41,19.2.02,30.72.33,46.47-1.41,42.95,32.52,80.19,127.74,56.74,161.22-2.38,3.4-5.96,7.56-11.45,11.62-9.9,7.33-22,11.07-34.32,11.07h-5.55Z"/>
  <path class="cls-1" d="m222.1,110.88c-30.54-.16-61.08-.32-91.63-.48-.1,0,0-3.55-.03-4.76l-.03-1.16c0-1.97-.02-4.13-.03-6.34-.05-6.4,5.12-11.61,11.52-11.61h77.68c6.13,0,11.09,4.97,11.09,11.09v13.31c-3.11,0-6.16.03-9.39-.05"/>
  <path class="cls-2" d="m259.57,21.13c-15.08,0-30.17,0-45.25,0-7.57,20.65-15.15,41.3-22.72,61.96h23.92c14.05-19.31,31.56-38.62,46.06-57.93,1.24-1.66.07-4.02-2-4.02h0Z"/>
  <path class="cls-4" d="m190.2,5.6c-5.59-2.13-11.77-2.13-17.35,0l-.48.18c-5.73,2.19-7.98,5.47-15.16,9.32-3.05,1.64-6.03,3.09-8.89,4.39,7.28,21.2,14.55,42.4,21.83,63.6h11.38c3.37,0,8.02,0,11.38,0,7.28-21.2,14.55-42.4,21.83-63.6-2.87-1.29-5.84-2.75-8.89-4.39-7.18-3.85-9.42-7.13-15.16-9.32l-.48-.18Z"/>
  <path class="cls-5" d="m102.8,21.13c14.99,0,29.98,0,44.97,0,7.53,20.52,15.05,41.04,22.58,61.57h-23.77c-13.96-19.19-31.36-38.38-45.77-57.57-1.24-1.65-.07-4,1.99-4h0Z"/>
  <path class="cls-8" d="m212.02,246.35c-4.39,5.54-10.58,9.36-18.57,11.46v13.54c0,1.96-1.02,2.94-3.07,2.94h-20.69c-2.05,0-3.07-.98-3.07-2.94v-13.4c-10.68-2.48-19.91-7.97-27.71-16.48-.58-.72-.88-1.38-.88-2.01,0-.81.37-1.58,1.1-2.29l15.28-14.18c.78-.67,1.49-1,2.12-1,.68,0,1.41.38,2.19,1.15,2.92,2.91,6.09,5.11,9.5,6.59,3.41,1.48,6.97,2.22,10.68,2.22,6.04,0,9.07-1.65,9.07-4.94,0-1.1-.24-2.07-.73-2.9-.49-.83-1.83-1.83-4.02-2.97-2.2-1.15-5.61-2.41-10.24-3.8-7.8-2.29-14.61-5.92-20.44-10.89-5.83-4.97-8.74-12.08-8.74-21.35,0-6.78,1.82-12.85,5.45-18.2,3.63-5.35,9.42-8.98,17.37-10.89v-15.9c0-1.96,1.02-2.94,3.07-2.94h20.69c2.05,0,3.07.98,3.07,2.94v16.4c8.14,2.25,15.6,6.26,22.38,12.04.78.62,1.17,1.34,1.17,2.15,0,.72-.32,1.41-.95,2.08l-13.96,15.4c-.73.81-1.49,1.22-2.27,1.22-.63,0-1.31-.29-2.05-.86-2.54-1.96-5.31-3.61-8.33-4.94-3.02-1.34-6.09-2.01-9.21-2.01-2.24,0-3.83.41-4.75,1.22-.93.81-1.39,1.93-1.39,3.37,0,.81.39,1.53,1.17,2.15.78.62,1.94,1.24,3.47,1.86,1.54.62,4.01,1.55,7.42,2.79l1.9.72c6.87,2.48,12.53,5.17,16.96,8.06,4.44,2.89,7.81,6.34,10.13,10.35,2.31,4.01,3.47,8.79,3.47,14.33,0,7.74-2.19,14.38-6.58,19.92Z"/>
  <g>
    <path class="cls-8" d="m15.31,374.23c-4.54-2.68-8.11-6.31-10.71-10.88-2.61-4.57-3.91-9.58-3.91-15.03s1.3-10.45,3.91-14.99c2.61-4.54,6.18-8.13,10.71-10.78,4.54-2.64,9.56-3.97,15.07-3.97,3.32,0,6.51.5,9.56,1.51,3.05,1.01,5.82,2.44,8.3,4.29.49.41.73.85.73,1.31,0,.38-.14.75-.4,1.1l-7.74,10.22c-.35.49-.78.74-1.3.74-.32,0-.69-.12-1.09-.37-1.22-.79-2.52-1.42-3.91-1.9-1.39-.48-2.77-.72-4.15-.72-2.21,0-4.3.6-6.26,1.8-1.96,1.2-3.52,2.83-4.7,4.91-1.17,2.07-1.76,4.36-1.76,6.87s.59,4.85,1.78,6.95c1.19,2.1,2.75,3.75,4.7,4.95,1.94,1.2,4.02,1.8,6.24,1.8,1.65,0,3.05-.18,4.21-.55,1.16-.37,2.47-1.07,3.93-2.11.38-.27.77-.41,1.17-.41.49,0,.9.25,1.26.74l7.57,10.3c.32.41.49.8.49,1.19,0,.41-.22.78-.65,1.1-2.51,1.91-5.3,3.37-8.36,4.4-3.06,1.02-6.27,1.53-9.62,1.53-5.51,0-10.53-1.34-15.07-4.03Z"/>
    <path class="cls-8" d="m98.63,376.75c-.3.3-.72.45-1.26.45h-43.02c-1.13,0-1.7-.57-1.7-1.72v-9.36c0-.79.24-1.51.73-2.17l21.71-28.95h-20.29c-.54,0-.96-.15-1.26-.45-.3-.3-.45-.72-.45-1.27v-11.82c0-.54.15-.97.45-1.27.3-.3.72-.45,1.26-.45h40.91c1.11,0,1.66.57,1.66,1.72v8.55c0,.84-.23,1.57-.69,2.17l-22.28,29.77h22.97c.54,0,.96.15,1.26.45.3.3.45.72.45,1.27v11.82c0,.55-.15.97-.45,1.27Z"/>
    <path class="cls-8" d="m136.09,377.2h-13.37c-.54,0-.96-.15-1.26-.45-.3-.3-.45-.72-.45-1.27v-19.55l-18.75-34.15c-.16-.33-.24-.63-.24-.9,0-.35.12-.63.36-.84.24-.21.61-.31,1.09-.31h15.6c.94,0,1.61.44,1.98,1.31l8.47,19.14,8.1-19.14c.38-.87,1.04-1.31,1.98-1.31h15.72c.46,0,.82.1,1.07.31.26.2.38.48.38.84,0,.3-.09.6-.28.9l-18.75,34.06v19.63c0,1.15-.55,1.72-1.66,1.72Z"/>
    <path class="cls-8" d="m183.45,377.44c-2.4-.68-4.69-1.81-6.85-3.39-.46-.35-.69-.76-.69-1.23,0-.35.13-.76.4-1.23l6.4-11c.3-.49.69-.74,1.17-.74.35,0,.74.15,1.17.45,2.11,1.28,3.79,1.92,5.06,1.92,2.24,0,3.36-1.5,3.36-4.5v-36.27c0-1.14.55-1.72,1.66-1.72h13.37c.54,0,.96.15,1.26.45.3.3.45.72.45,1.27v37.46c0,3.98-.8,7.44-2.41,10.39-1.61,2.94-3.91,5.21-6.91,6.79-3,1.58-6.54,2.37-10.61,2.37-2.16,0-4.44-.34-6.85-1.02Z"/>
    <path class="cls-8" d="m259.48,376.75c-.3.3-.72.45-1.26.45h-39.01c-1.13,0-1.7-.57-1.7-1.72v-54.02c0-1.14.57-1.72,1.7-1.72h38.4c.54,0,.96.15,1.26.45.3.3.45.72.45,1.27v11.78c0,1.12-.57,1.68-1.7,1.68h-23.37v6.34h17.62c.54,0,.96.15,1.26.45.3.3.45.72.45,1.27v10.75c0,1.14-.57,1.72-1.7,1.72h-17.62v6.58h23.98c1.13,0,1.7.56,1.7,1.68v11.78c0,.55-.15.97-.45,1.27Z"/>
    <path class="cls-8" d="m274.04,375.63c-3.85-1.73-7.24-4.25-10.19-7.54-.32-.41-.49-.79-.49-1.14,0-.46.2-.9.61-1.31l8.47-8.1c.43-.38.82-.57,1.17-.57.38,0,.78.22,1.21.65,1.62,1.66,3.38,2.92,5.27,3.76,1.89.85,3.86,1.27,5.91,1.27,3.35,0,5.02-.94,5.02-2.82,0-.63-.14-1.18-.4-1.66-.27-.48-1.01-1.04-2.23-1.7s-3.11-1.38-5.67-2.17c-4.32-1.31-8.09-3.38-11.32-6.22-3.23-2.83-4.84-6.9-4.84-12.19,0-3.05.64-5.89,1.92-8.51,1.28-2.62,3.38-4.74,6.3-6.38,2.92-1.64,6.67-2.45,11.26-2.45,3.89,0,7.58.72,11.08,2.15,3.5,1.43,6.61,3.35,9.34,5.75.43.35.65.76.65,1.23,0,.41-.18.8-.53,1.19l-7.74,8.79c-.4.46-.82.7-1.26.7-.35,0-.73-.16-1.13-.49-1.4-1.12-2.94-2.06-4.62-2.82-1.67-.76-3.38-1.14-5.1-1.14-1.24,0-2.12.23-2.63.7-.51.46-.77,1.1-.77,1.92,0,.46.22.87.65,1.23.43.35,1.07.71,1.92,1.06s2.22.89,4.11,1.59l1.05.41c3.81,1.42,6.94,2.95,9.4,4.6,2.46,1.65,4.33,3.62,5.61,5.91,1.28,2.29,1.92,5.02,1.92,8.18,0,3.71-.87,6.97-2.61,9.79-1.74,2.82-4.24,5.02-7.49,6.58-3.25,1.57-7.07,2.35-11.44,2.35s-8.57-.87-12.42-2.6Z"/>
    <path class="cls-8" d="m338.79,377.2h-13.33c-1.13,0-1.7-.57-1.7-1.72v-40.03h-12.72c-.54,0-.96-.15-1.26-.45-.3-.3-.45-.72-.45-1.27v-12.27c0-.54.15-.97.45-1.27.3-.3.72-.45,1.26-.45h42.21c.54,0,.96.15,1.26.45.3.3.45.72.45,1.27v12.27c0,.55-.15.97-.45,1.27-.3.3-.72.45-1.26.45h-12.76v40.03c0,1.15-.57,1.72-1.7,1.72Z"/>
  </g>
  <g>
    <path class="cls-8" d="m31.58,429.63c-.22.21-.52.32-.92.32H2.23c-.83,0-1.24-.41-1.24-1.23v-38.72c0-.82.41-1.23,1.24-1.23h27.99c.39,0,.7.11.92.32.22.21.32.52.32.91v8.44c0,.8-.41,1.2-1.24,1.2H13.19v4.54h12.85c.39,0,.7.11.92.32.22.22.33.52.33.91v7.71c0,.82-.41,1.23-1.24,1.23h-12.85v4.72h17.48c.83,0,1.24.4,1.24,1.2v8.44c0,.39-.11.69-.33.91Z"/>
    <path class="cls-8" d="m64.21,429.63c-.22.21-.52.32-.92.32h-25.72c-.83,0-1.24-.41-1.24-1.23v-38.72c0-.82.41-1.23,1.24-1.23h9.72c.83,0,1.24.41,1.24,1.23v28.37h14.77c.39,0,.7.11.92.32.22.22.33.52.33.91v9.11c0,.39-.11.69-.33.91Z"/>
    <path class="cls-8" d="m68.08,428.72v-38.72c0-.82.41-1.23,1.24-1.23h14.77c4.04,0,7.73.89,11.09,2.68,3.36,1.79,6.01,4.25,7.96,7.39,1.95,3.14,2.92,6.63,2.92,10.48s-.97,7.38-2.91,10.52c-1.94,3.15-4.58,5.62-7.93,7.42-3.35,1.8-7.03,2.7-11.04,2.7h-14.85c-.83,0-1.24-.41-1.24-1.23Zm21.23-11.49c1.38-.74,2.45-1.8,3.22-3.17.77-1.37,1.15-2.95,1.15-4.75s-.38-3.32-1.15-4.67c-.77-1.36-1.84-2.41-3.22-3.15-1.38-.74-2.95-1.11-4.72-1.11h-4.31v17.97h4.31c1.77,0,3.35-.37,4.72-1.11Z"/>
    <path class="cls-8" d="m119.67,427.83c-3.31-1.92-5.91-4.52-7.81-7.8-1.9-3.27-2.85-6.86-2.85-10.77s.95-7.49,2.85-10.74c1.9-3.25,4.5-5.83,7.81-7.72,3.31-1.89,6.97-2.84,10.99-2.84s7.65.95,10.96,2.84c3.31,1.9,5.91,4.47,7.81,7.72,1.9,3.25,2.85,6.83,2.85,10.74s-.95,7.5-2.85,10.77-4.5,5.87-7.81,7.8c-3.31,1.92-6.96,2.89-10.96,2.89s-7.68-.96-10.99-2.89Zm15.55-10.01c1.43-.86,2.56-2.04,3.41-3.55.85-1.5,1.27-3.17,1.27-4.98s-.43-3.44-1.28-4.92c-.86-1.48-1.99-2.66-3.41-3.52-1.42-.86-2.93-1.29-4.55-1.29s-3.14.43-4.56,1.29c-1.43.86-2.57,2.03-3.43,3.52-.86,1.49-1.28,3.13-1.28,4.92s.43,3.48,1.3,4.98c.87,1.5,2.01,2.69,3.43,3.55,1.42.86,2.93,1.29,4.55,1.29s3.13-.43,4.56-1.29Z"/>
    <path class="cls-8" d="m156.7,428.72v-38.72c0-.82.41-1.23,1.24-1.23h17.16c2.87,0,5.43.61,7.68,1.82,2.24,1.21,3.99,2.89,5.24,5.04,1.25,2.15,1.88,4.6,1.88,7.36,0,4.85-1.93,8.56-5.79,11.14l7.38,14.39c.12.23.18.44.18.62,0,.25-.09.45-.28.6s-.46.22-.81.22h-11.1c-.69,0-1.17-.3-1.45-.91l-5.61-11.81h-3.51v11.49c0,.82-.41,1.23-1.24,1.23h-9.72c-.83,0-1.24-.41-1.24-1.23Zm19.8-22.89c.68-.76,1.02-1.7,1.02-2.81,0-1.19-.34-2.09-1.03-2.7-.69-.61-1.49-.91-2.39-.91h-5.2v7.56h5.08c1,0,1.85-.38,2.52-1.14Z"/>
    <path class="cls-8" d="m234.78,429.07c0,.27-.09.49-.28.64s-.45.23-.78.23h-10.01c-.71,0-1.17-.34-1.39-1.03l-1.45-4.54h-13.47l-1.45,4.54c-.22.68-.68,1.03-1.39,1.03h-9.95c-.35,0-.63-.08-.81-.25-.19-.17-.28-.39-.28-.66,0-.16.03-.32.09-.5l14.91-38.86c.24-.64.71-.97,1.42-.97h8.5c.71,0,1.18.32,1.42.97l14.79,38.86c.08.18.12.35.12.53Zm-17.25-14.71l-2.81-9.03-.62-2.17-.5,2.17-2.81,9.03h6.73Z"/>
    <path class="cls-8" d="m238.41,428.72v-38.72c0-.82.41-1.23,1.24-1.23h14.77c4.04,0,7.73.89,11.09,2.68,3.36,1.79,6.01,4.25,7.96,7.39,1.95,3.14,2.92,6.63,2.92,10.48s-.97,7.38-2.91,10.52c-1.94,3.15-4.58,5.62-7.93,7.42-3.35,1.8-7.03,2.7-11.04,2.7h-14.85c-.83,0-1.24-.41-1.24-1.23Zm21.23-11.49c1.38-.74,2.45-1.8,3.22-3.17.77-1.37,1.15-2.95,1.15-4.75s-.38-3.32-1.15-4.67c-.77-1.36-1.84-2.41-3.22-3.15-1.38-.74-2.95-1.11-4.72-1.11h-4.31v17.97h4.31c1.77,0,3.35-.37,4.72-1.11Z"/>
    <path class="cls-8" d="m290,427.83c-3.31-1.92-5.91-4.52-7.81-7.8-1.9-3.27-2.85-6.86-2.85-10.77s.95-7.49,2.85-10.74c1.9-3.25,4.5-5.83,7.81-7.72,3.31-1.89,6.97-2.84,10.99-2.84s7.65.95,10.96,2.84c3.31,1.9,5.91,4.47,7.81,7.72,1.9,3.25,2.85,6.83,2.85,10.74s-.95,7.5-2.85,10.77-4.5,5.87-7.81,7.8c-3.31,1.92-6.96,2.89-10.96,2.89s-7.68-.96-10.99-2.89Zm15.55-10.01c1.43-.86,2.56-2.04,3.41-3.55.85-1.5,1.27-3.17,1.27-4.98s-.43-3.44-1.28-4.92c-.86-1.48-1.99-2.66-3.41-3.52-1.42-.86-2.93-1.29-4.55-1.29s-3.14.43-4.56,1.29c-1.43.86-2.57,2.03-3.43,3.52-.86,1.49-1.28,3.13-1.28,4.92s.43,3.48,1.3,4.98c.87,1.5,2.01,2.69,3.43,3.55,1.42.86,2.93,1.29,4.55,1.29s3.13-.43,4.56-1.29Z"/>
    <path class="cls-8" d="m345.2,415.77c-.23.14-.53.21-.9.21h-9.04c-.37,0-.67-.12-.9-.37-.23-.24-.34-.58-.34-1.01v-1.44c0-2.21.48-4.11,1.45-5.7.96-1.59,2.27-3.15,3.93-4.67l1.15-1.03c.91-.8,1.61-1.46,2.13-1.98.51-.52.93-1.07,1.27-1.66.33-.59.5-1.19.5-1.82,0-.98-.32-1.75-.97-2.32-.65-.57-1.53-.85-2.63-.85-.93,0-1.7.3-2.32.91s-1,1.43-1.14,2.46c-.08.39-.23.7-.46.94-.23.23-.51.35-.84.35h-8.65c-.41,0-.73-.12-.94-.35-.22-.23-.31-.59-.3-1.05.24-4.2,1.59-7.43,4.06-9.69,2.47-2.26,6.13-3.39,10.97-3.39,2.62,0,5.02.54,7.21,1.63,2.19,1.08,3.92,2.63,5.21,4.63,1.29,2,1.93,4.33,1.93,6.99,0,1.66-.21,3.08-.62,4.26-.41,1.18-.94,2.17-1.58,2.97-.64.8-1.43,1.59-2.38,2.37-1.24,1.02-2.21,1.88-2.91,2.58s-1.3,1.54-1.8,2.52c-.5.98-.75,2.09-.75,3.34v.62c0,.21-.11.39-.34.53Zm.4,4.25v8.7c0,.82-.41,1.23-1.24,1.23h-9.12c-.81,0-1.21-.41-1.21-1.23v-8.7c0-.82.4-1.23,1.21-1.23h9.12c.83,0,1.24.41,1.24,1.23Z"/>
  </g>
  <path class="cls-7" d="m74.87,239.86c.31-10.46,2.44-21.98,5.67-32.47,13.59-44.2,37.53-72.29,54.9-88.22,3.39.31,6.9.57,10.53.75,4.62.24,8.08.29,12.43.33,1.3.01.64,0,1.93.02-35.29,19.22-47.23,45.52-57.42,64.96-8.81,16.81-14.14,29.6-17.48,44.09-1.91,8.28-2.41,14.34-10.25,17.62l-.22.09c-.14-2.31-.16-4.71-.09-7.17Z"/>
  <path class="cls-9" d="m87.48,274.84c3.23,2.9,5.5,4.89,9.29,7.09,4.76,2.76,9.26,4.72,13.49,5.79,4.78,1.21,9.89,1.57,14.71,1.92l111.59-.23c6.68-.01,13.35-1.07,19.62-3.37,9.42-3.45,14.94-8.22,18.29-12.1,23-26.6-2.54-104.78-40.95-146.19,35.02,61.24,48.59,136.63,13.44,146.51-5.01,1.41-14.72,3.27-23.02,3.6h-92.77c-8.19-.25-18.21-.2-27.49-3.03-10.7-3.26-19.87-9.73-27.93-21.14.13.36.86,11.41,11.72,21.14Z"/>
</svg>