<svg xmlns="http://www.w3.org/2000/svg" xmlns:xlink="http://www.w3.org/1999/xlink" width="500" zoomAndPan="magnify" viewBox="0 0 375 374.999991" height="500" preserveAspectRatio="xMidYMid meet" version="1.0"><defs><g/><clipPath id="72d95993be"><path d="M 105.886719 113.820312 L 269.113281 113.820312 L 269.113281 277.050781 L 105.886719 277.050781 Z M 105.886719 113.820312 " clip-rule="nonzero"/></clipPath><clipPath id="c9c78971b6"><path d="M 187.5 113.820312 C 142.425781 113.820312 105.886719 150.363281 105.886719 195.4375 C 105.886719 240.511719 142.425781 277.050781 187.5 277.050781 C 232.574219 277.050781 269.113281 240.511719 269.113281 195.4375 C 269.113281 150.363281 232.574219 113.820312 187.5 113.820312 Z M 187.5 113.820312 " clip-rule="nonzero"/></clipPath><clipPath id="61d96a7cc8"><path d="M 122.105469 185 L 252.605469 185 L 252.605469 238 L 122.105469 238 Z M 122.105469 185 " clip-rule="nonzero"/></clipPath><clipPath id="05328bf165"><path d="M 66 76.363281 L 308.996094 76.363281 L 308.996094 195.613281 L 66 195.613281 Z M 66 76.363281 " clip-rule="nonzero"/></clipPath></defs><g clip-path="url(#72d95993be)"><g clip-path="url(#c9c78971b6)"><path fill="#ff914d" d="M 105.886719 113.820312 L 269.113281 113.820312 L 269.113281 277.050781 L 105.886719 277.050781 Z M 105.886719 113.820312 " fill-opacity="1" fill-rule="nonzero"/></g></g><path fill="#ffffff" d="M 211.117188 152.429688 C 206.460938 155.75 203.878906 161.601562 202.082031 166.855469 C 201.34375 168.976562 202.867188 171.648438 205.214844 171.695312 C 209.042969 171.789062 212.867188 171.835938 216.648438 171.878906 C 220.058594 171.972656 224.621094 172.664062 227.710938 171.050781 C 229.554688 170.082031 229.597656 167.734375 228.03125 166.488281 C 225.175781 164.277344 220.242188 164.414062 216.785156 164.277344 C 212.777344 164.136719 208.765625 164.183594 204.800781 164.507812 C 206.183594 166.074219 207.566406 167.6875 208.902344 169.253906 C 210.148438 164.136719 212.730469 159.574219 214.25 154.550781 C 214.894531 152.570312 212.683594 151.324219 211.117188 152.429688 Z M 211.117188 152.429688 " fill-opacity="1" fill-rule="nonzero"/><g clip-path="url(#61d96a7cc8)"><path fill="#ffffff" d="M 123.175781 203.960938 C 127.324219 213.640625 135.710938 220.507812 144.746094 225.484375 C 154.792969 231.015625 165.855469 234.703125 177.191406 236.363281 C 199.179688 239.542969 222.363281 233.6875 238.125 217.558594 C 245.914062 209.582031 252.046875 199.121094 252.550781 187.78125 C 252.691406 184.925781 248.636719 184.003906 247.621094 186.769531 C 244.578125 195.019531 240.429688 202.761719 234.390625 209.261719 C 228.402344 215.667969 221.164062 220.554688 213.007812 223.824219 C 193.648438 231.613281 170.695312 228.988281 151.933594 220.785156 C 142.117188 216.40625 133.589844 209.8125 126.445312 201.792969 C 124.878906 200.089844 122.296875 201.933594 123.175781 203.960938 Z M 123.175781 203.960938 " fill-opacity="1" fill-rule="nonzero"/></g><path fill="#ffffff" d="M 154.746094 157.730469 C 152.074219 163.675781 151.660156 171.464844 153.6875 177.6875 C 154.5625 180.316406 159.125 180.777344 159.078125 177.367188 C 159.078125 174.09375 158.710938 170.820312 158.527344 167.546875 C 158.34375 164.320312 158.296875 161.140625 157.925781 157.960938 C 157.742188 156.210938 155.347656 156.394531 154.746094 157.730469 Z M 154.746094 157.730469 " fill-opacity="1" fill-rule="nonzero"/><g clip-path="url(#05328bf165)"><path fill="#ff914d" d="M 304.804688 163.832031 C 308.042969 170.421875 308.070312 185.929688 308.070312 185.929688 C 307.691406 186.195312 307.3125 186.398438 306.933594 186.574219 L 304.574219 176.6875 C 304.574219 176.6875 303.902344 183.25 304.078125 187.070312 C 299.5 188.585938 296.816406 186.222656 296.816406 186.222656 C 295.5625 173.976562 296.90625 167.097656 298.011719 163.683594 C 297.195312 162.839844 296.699219 161.730469 296.671875 160.476562 C 296.613281 158.4375 297.867188 156.628906 299.644531 155.902344 L 299.355469 133.539062 L 269.585938 147.007812 C 267.339844 148.027344 264.773438 146.453125 264.6875 143.976562 L 264.335938 135.140625 C 264.277344 134.003906 263.695312 132.984375 262.761719 132.371094 C 216.140625 101.640625 177.945312 104.003906 154.15625 111.378906 C 128.234375 119.425781 113.597656 134.675781 112.988281 135.316406 L 112.957031 135.34375 C 112.316406 136.015625 111.996094 136.890625 111.996094 137.792969 L 112.140625 147.679688 C 112.171875 150.1875 109.664062 151.90625 107.332031 150.945312 L 68.929688 135.199219 C 66.101562 134.035156 66.046875 130.066406 68.816406 128.8125 L 184.417969 76.769531 C 185.292969 76.390625 186.257812 76.363281 187.132812 76.710938 L 306 124.121094 C 308.859375 125.257812 308.945312 129.25 306.148438 130.535156 L 302.183594 132.3125 L 302.472656 155.695312 C 304.601562 156.132812 306.207031 158 306.261719 160.246094 C 306.320312 161.644531 305.738281 162.925781 304.804688 163.832031 Z M 117.855469 139.980469 C 117.679688 140.125 117.5625 140.359375 117.5625 140.621094 L 117.5625 194.242188 C 117.5625 194.882812 118.265625 195.289062 118.816406 194.941406 C 127.449219 189.664062 180.570312 160.683594 258.214844 195.203125 C 258.769531 195.4375 259.378906 195.058594 259.378906 194.472656 L 259.378906 138.289062 C 259.378906 138.027344 259.265625 137.765625 259.03125 137.621094 C 253.519531 133.710938 182.582031 85.371094 117.855469 139.980469 Z M 117.855469 139.980469 " fill-opacity="1" fill-rule="nonzero"/></g><g fill="#291942" fill-opacity="1"><g transform="translate(51.138556, 254.859705)"><g><path d="M 8.5 12.5 L 12.484375 0.59375 L 4.21875 6.21875 L 1.125 1.65625 L 19.84375 -11.078125 L 22.9375 -6.515625 L 14.71875 -0.921875 L 27.1875 -0.28125 L 30.828125 5.078125 L 16.71875 4.0625 L 12.296875 18.078125 Z M 8.5 12.5 "/></g></g></g><g fill="#291942" fill-opacity="1"><g transform="translate(65.19759, 275.291452)"><g><path d="M 13.984375 8.921875 L 8.15625 2.796875 L 4.328125 4.5625 L 0.359375 0.375 L 22.421875 -9.265625 L 26.828125 -4.625 L 16.015625 16.890625 L 12.015625 12.671875 Z M 16.078125 4.96875 L 20.171875 -2.765625 L 12.234375 0.921875 Z M 16.078125 4.96875 "/></g></g></g><g fill="#291942" fill-opacity="1"><g transform="translate(83.325227, 294.147774)"><g><path d="M 17.78125 13.359375 L 13.375 10.046875 L 14.40625 -6.65625 L 6.015625 4.515625 L 1.59375 1.203125 L 15.203125 -16.890625 L 19.625 -13.578125 L 18.546875 3.171875 L 26.984375 -8.046875 L 31.390625 -4.734375 Z M 17.78125 13.359375 "/></g></g></g><g fill="#291942" fill-opacity="1"><g transform="translate(104.751322, 309.976218)"><g><path d="M 16.140625 3.84375 L 8.625 -0.046875 L 5.578125 2.890625 L 0.453125 0.234375 L 18.125 -16.109375 L 23.796875 -13.1875 L 20.6875 10.6875 L 15.5 8.015625 Z M 16.8125 -0.59375 L 18.140625 -9.25 L 11.859375 -3.15625 Z M 16.8125 -0.59375 "/></g></g></g><g fill="#291942" fill-opacity="1"><g transform="translate(127.872596, 321.445599)"><g><path d="M 15.6875 1.078125 L 14.296875 5.03125 L 2.28125 0.796875 L 5.1875 -7.46875 L 3.015625 -7.578125 L 4.5625 -11.953125 L 6.734375 -11.859375 L 9.796875 -20.5625 L 15 -18.71875 L 12.484375 -11.5625 L 15.265625 -11.421875 L 13.734375 -7.046875 L 10.953125 -7.1875 L 8.875 -1.3125 Z M 15.6875 1.078125 "/></g></g></g><g fill="#291942" fill-opacity="1"><g transform="translate(144.046358, 326.894673)"><g/></g></g><g fill="#291942" fill-opacity="1"><g transform="translate(152.144856, 329.274311)"><g><path d="M 10.015625 1.875 C 8.378906 1.601562 6.957031 1.09375 5.75 0.34375 C 4.539062 -0.394531 3.632812 -1.34375 3.03125 -2.5 C 2.4375 -3.664062 2.238281 -4.984375 2.4375 -6.453125 L 8.21875 -5.5 C 8.175781 -4.65625 8.363281 -3.972656 8.78125 -3.453125 C 9.195312 -2.941406 9.796875 -2.625 10.578125 -2.5 C 11.378906 -2.363281 12.039062 -2.441406 12.5625 -2.734375 C 13.09375 -3.035156 13.414062 -3.519531 13.53125 -4.1875 C 13.613281 -4.726562 13.5 -5.207031 13.1875 -5.625 C 12.882812 -6.050781 12.484375 -6.425781 11.984375 -6.75 C 11.484375 -7.070312 10.757812 -7.46875 9.8125 -7.9375 C 8.4375 -8.613281 7.328125 -9.25 6.484375 -9.84375 C 5.648438 -10.4375 4.976562 -11.222656 4.46875 -12.203125 C 3.957031 -13.179688 3.816406 -14.367188 4.046875 -15.765625 C 4.390625 -17.847656 5.410156 -19.351562 7.109375 -20.28125 C 8.804688 -21.21875 10.863281 -21.484375 13.28125 -21.078125 C 15.75 -20.671875 17.640625 -19.753906 18.953125 -18.328125 C 20.265625 -16.910156 20.796875 -15.140625 20.546875 -13.015625 L 14.65625 -13.984375 C 14.738281 -14.710938 14.566406 -15.320312 14.140625 -15.8125 C 13.722656 -16.3125 13.132812 -16.625 12.375 -16.75 C 11.71875 -16.863281 11.15625 -16.78125 10.6875 -16.5 C 10.226562 -16.21875 9.941406 -15.75 9.828125 -15.09375 C 9.710938 -14.375 9.957031 -13.753906 10.5625 -13.234375 C 11.175781 -12.710938 12.171875 -12.101562 13.546875 -11.40625 C 14.898438 -10.664062 15.992188 -10 16.828125 -9.40625 C 17.660156 -8.820312 18.332031 -8.050781 18.84375 -7.09375 C 19.363281 -6.132812 19.515625 -4.984375 19.296875 -3.640625 C 19.085938 -2.378906 18.570312 -1.28125 17.75 -0.34375 C 16.9375 0.582031 15.863281 1.25 14.53125 1.65625 C 13.195312 2.070312 11.691406 2.144531 10.015625 1.875 Z M 10.015625 1.875 "/></g></g></g><g fill="#291942" fill-opacity="1"><g transform="translate(173.751653, 332.666434)"><g><path d="M 18.890625 -22.140625 L 18.765625 -17.734375 L 12.765625 -17.890625 L 12.28125 0.328125 L 6.765625 0.1875 L 7.25 -18.03125 L 1.265625 -18.203125 L 1.390625 -22.609375 Z M 18.890625 -22.140625 "/></g></g></g><g fill="#291942" fill-opacity="1"><g transform="translate(194.963175, 333.212574)"><g><path d="M 4.671875 -23.375 L 6.296875 -9.921875 C 6.453125 -8.578125 6.90625 -7.582031 7.65625 -6.9375 C 8.40625 -6.289062 9.421875 -6.046875 10.703125 -6.203125 C 11.972656 -6.347656 12.90625 -6.820312 13.5 -7.625 C 14.09375 -8.4375 14.3125 -9.515625 14.15625 -10.859375 L 12.53125 -24.3125 L 18 -24.96875 L 19.609375 -11.546875 C 19.847656 -9.535156 19.625 -7.785156 18.9375 -6.296875 C 18.257812 -4.816406 17.242188 -3.632812 15.890625 -2.75 C 14.546875 -1.875 12.984375 -1.332031 11.203125 -1.125 C 9.429688 -0.90625 7.804688 -1.054688 6.328125 -1.578125 C 4.847656 -2.109375 3.613281 -3.023438 2.625 -4.328125 C 1.644531 -5.628906 1.035156 -7.285156 0.796875 -9.296875 L -0.8125 -22.71875 Z M 4.671875 -23.375 "/></g></g></g><g fill="#291942" fill-opacity="1"><g transform="translate(219.820334, 330.068144)"><g><path d="M 3.796875 -24.65625 C 6.085938 -25.3125 8.222656 -25.429688 10.203125 -25.015625 C 12.179688 -24.609375 13.875 -23.71875 15.28125 -22.34375 C 16.695312 -20.96875 17.710938 -19.207031 18.328125 -17.0625 C 18.941406 -14.9375 19.019531 -12.914062 18.5625 -11 C 18.101562 -9.082031 17.140625 -7.414062 15.671875 -6 C 14.210938 -4.59375 12.347656 -3.5625 10.078125 -2.90625 L 1.921875 -0.546875 L -4.359375 -22.296875 Z M 8.40625 -7.390625 C 10.40625 -7.960938 11.804688 -8.957031 12.609375 -10.375 C 13.410156 -11.789062 13.519531 -13.503906 12.9375 -15.515625 C 12.363281 -17.523438 11.359375 -18.925781 9.921875 -19.71875 C 8.484375 -20.507812 6.765625 -20.617188 4.765625 -20.046875 L 2.25 -19.3125 L 5.890625 -6.65625 Z M 8.40625 -7.390625 "/></g></g></g><g fill="#291942" fill-opacity="1"><g transform="translate(244.262493, 322.635864)"><g><path d="M -0.65625 -19.703125 L 1.234375 -15.53125 L 7.96875 -18.578125 L 9.71875 -14.703125 L 2.984375 -11.65625 L 5.03125 -7.125 L 12.640625 -10.5625 L 14.453125 -6.53125 L 1.828125 -0.828125 L -7.484375 -21.46875 L 5.140625 -27.171875 L 6.953125 -23.140625 Z M -0.65625 -19.703125 "/></g></g></g><g fill="#291942" fill-opacity="1"><g transform="translate(262.173231, 314.648623)"><g><path d="M 18.734375 -12.015625 L 14.09375 -9.03125 L -1.21875 -15.828125 L 6.328125 -4.0625 L 1.6875 -1.078125 L -10.53125 -20.140625 L -5.890625 -23.125 L 9.453125 -16.28125 L 1.875 -28.09375 L 6.515625 -31.078125 Z M 18.734375 -12.015625 "/></g></g></g><g fill="#291942" fill-opacity="1"><g transform="translate(284.520177, 300.08653)"><g><path d="M -6.875 -9.109375 C -8.382812 -10.753906 -9.375 -12.546875 -9.84375 -14.484375 C -10.3125 -16.429688 -10.234375 -18.347656 -9.609375 -20.234375 C -8.984375 -22.117188 -7.863281 -23.804688 -6.25 -25.296875 C -4.257812 -27.109375 -2.082031 -28.132812 0.28125 -28.375 C 2.644531 -28.625 4.890625 -28.0625 7.015625 -26.6875 L 2.546875 -22.59375 C 1.566406 -22.988281 0.609375 -23.085938 -0.328125 -22.890625 C -1.265625 -22.703125 -2.125 -22.253906 -2.90625 -21.546875 C -4.15625 -20.398438 -4.769531 -19.03125 -4.75 -17.4375 C -4.738281 -15.851562 -4.066406 -14.335938 -2.734375 -12.890625 C -1.398438 -11.421875 0.0507812 -10.609375 1.625 -10.453125 C 3.207031 -10.296875 4.625 -10.789062 5.875 -11.9375 C 6.65625 -12.644531 7.179688 -13.457031 7.453125 -14.375 C 7.734375 -15.300781 7.722656 -16.257812 7.421875 -17.25 L 11.890625 -21.34375 C 13.078125 -19.101562 13.4375 -16.820312 12.96875 -14.5 C 12.507812 -12.175781 11.285156 -10.109375 9.296875 -8.296875 C 7.679688 -6.804688 5.898438 -5.835938 3.953125 -5.390625 C 2.015625 -4.941406 0.101562 -5.035156 -1.78125 -5.671875 C -3.664062 -6.304688 -5.363281 -7.453125 -6.875 -9.109375 Z M -6.875 -9.109375 "/></g></g></g><g fill="#291942" fill-opacity="1"><g transform="translate(304.201011, 281.722961)"><g><path d="M 9.34375 -11.890625 L -3.21875 -12.078125 L 4.640625 -5.90625 L 1.234375 -1.578125 L -16.5625 -15.5625 L -13.15625 -19.890625 L -5.34375 -13.75 L -8.484375 -25.828125 L -4.484375 -30.921875 L -1.1875 -17.171875 L 13.5 -17.1875 Z M 9.34375 -11.890625 "/></g></g></g><g fill="#291942" fill-opacity="1"><g transform="translate(318.809987, 262.376364)"><g><path d="M -15.3125 -18.28125 L 3.953125 -6.390625 L 1.046875 -1.703125 L -18.21875 -13.59375 Z M -15.3125 -18.28125 "/></g></g></g><g fill="#291942" fill-opacity="1"><g transform="translate(107.98422, 88.630742)"><g><path d="M 0.984375 -28.140625 L 3.484375 -24.484375 L -4.109375 -19.265625 L -1.40625 -15.34375 L 4.28125 -19.25 L 6.703125 -15.703125 L 1.015625 -11.796875 L 6.203125 -4.25 L 1.65625 -1.125 L -11.15625 -19.796875 Z M 0.984375 -28.140625 "/></g></g></g><g fill="#291942" fill-opacity="1"><g transform="translate(121.586707, 78.96725)"><g><path d="M -3.171875 -23.609375 L 2.734375 -11.421875 C 3.316406 -10.203125 4.066406 -9.410156 4.984375 -9.046875 C 5.898438 -8.679688 6.9375 -8.773438 8.09375 -9.328125 C 9.25 -9.890625 9.976562 -10.648438 10.28125 -11.609375 C 10.582031 -12.566406 10.441406 -13.65625 9.859375 -14.875 L 3.953125 -27.0625 L 8.921875 -29.453125 L 14.8125 -17.296875 C 15.6875 -15.472656 16.039062 -13.742188 15.875 -12.109375 C 15.707031 -10.484375 15.125 -9.035156 14.125 -7.765625 C 13.132812 -6.492188 11.832031 -5.46875 10.21875 -4.6875 C 8.613281 -3.914062 7.023438 -3.535156 5.453125 -3.546875 C 3.890625 -3.566406 2.429688 -4.03125 1.078125 -4.9375 C -0.265625 -5.851562 -1.375 -7.222656 -2.25 -9.046875 L -8.140625 -21.203125 Z M -3.171875 -23.609375 "/></g></g></g><g fill="#291942" fill-opacity="1"><g transform="translate(140.903066, 69.433618)"><g><path d="M 21.40625 -6.046875 L 16.109375 -4.546875 L 3.4375 -15.484375 L 7.234375 -2.046875 L 1.921875 -0.546875 L -4.234375 -22.328125 L 1.078125 -23.828125 L 13.765625 -12.828125 L 9.953125 -26.328125 L 15.25 -27.828125 Z M 21.40625 -6.046875 "/></g></g></g><g fill="#291942" fill-opacity="1"><g transform="translate(163.039464, 63.107788)"><g><path d="M 8.234375 -23.546875 C 10.609375 -23.773438 12.726562 -23.503906 14.59375 -22.734375 C 16.46875 -21.972656 17.972656 -20.789062 19.109375 -19.1875 C 20.242188 -17.582031 20.921875 -15.664062 21.140625 -13.4375 C 21.347656 -11.238281 21.050781 -9.234375 20.25 -7.421875 C 19.445312 -5.617188 18.195312 -4.15625 16.5 -3.03125 C 14.8125 -1.914062 12.789062 -1.242188 10.4375 -1.015625 L 1.984375 -0.1875 L -0.21875 -22.71875 Z M 9.609375 -5.734375 C 11.679688 -5.929688 13.238281 -6.65625 14.28125 -7.90625 C 15.332031 -9.15625 15.757812 -10.816406 15.5625 -12.890625 C 15.351562 -14.972656 14.613281 -16.535156 13.34375 -17.578125 C 12.082031 -18.617188 10.414062 -19.039062 8.34375 -18.84375 L 5.75 -18.59375 L 7.015625 -5.484375 Z M 9.609375 -5.734375 "/></g></g></g><g fill="#291942" fill-opacity="1"><g transform="translate(185.159803, 60.827863)"><g><path d="M 16.359375 -2.71875 L 7.921875 -3.375 L 6.265625 0.5 L 0.515625 0.046875 L 10.453125 -21.875 L 16.828125 -21.375 L 23.203125 1.828125 L 17.40625 1.375 Z M 15.28125 -7.0625 L 13.140625 -15.5625 L 9.71875 -7.5 Z M 15.28125 -7.0625 "/></g></g></g><g fill="#291942" fill-opacity="1"><g transform="translate(207.624674, 62.455117)"><g><path d="M 3.9375 -10.71875 C 4.507812 -12.875 5.488281 -14.671875 6.875 -16.109375 C 8.257812 -17.554688 9.910156 -18.53125 11.828125 -19.03125 C 13.742188 -19.53125 15.765625 -19.5 17.890625 -18.9375 C 20.492188 -18.25 22.539062 -16.972656 24.03125 -15.109375 C 25.519531 -13.253906 26.253906 -11.0625 26.234375 -8.53125 L 20.375 -10.078125 C 20.195312 -11.109375 19.769531 -11.96875 19.09375 -12.65625 C 18.414062 -13.34375 17.570312 -13.820312 16.5625 -14.09375 C 14.914062 -14.53125 13.429688 -14.3125 12.109375 -13.4375 C 10.785156 -12.5625 9.867188 -11.175781 9.359375 -9.28125 C 8.859375 -7.363281 8.960938 -5.695312 9.671875 -4.28125 C 10.390625 -2.875 11.570312 -1.953125 13.21875 -1.515625 C 14.226562 -1.242188 15.195312 -1.238281 16.125 -1.5 C 17.0625 -1.757812 17.863281 -2.285156 18.53125 -3.078125 L 24.390625 -1.53125 C 23.148438 0.664062 21.421875 2.195312 19.203125 3.0625 C 16.992188 3.9375 14.585938 4.03125 11.984375 3.34375 C 9.859375 2.78125 8.085938 1.800781 6.671875 0.40625 C 5.265625 -0.976562 4.3125 -2.632812 3.8125 -4.5625 C 3.320312 -6.5 3.363281 -8.550781 3.9375 -10.71875 Z M 3.9375 -10.71875 "/></g></g></g><g fill="#291942" fill-opacity="1"><g transform="translate(230.285241, 68.61598)"><g><path d="M 24.03125 -14.0625 L 17.734375 0.015625 C 16.753906 2.191406 15.382812 3.59375 13.625 4.21875 C 11.875 4.851562 9.957031 4.703125 7.875 3.765625 C 5.695312 2.796875 4.226562 1.398438 3.46875 -0.421875 C 2.707031 -2.253906 2.835938 -4.304688 3.859375 -6.578125 L 8.875 -4.34375 C 8.488281 -3.476562 8.367188 -2.742188 8.515625 -2.140625 C 8.671875 -1.535156 9.082031 -1.085938 9.75 -0.796875 C 10.363281 -0.523438 10.921875 -0.507812 11.421875 -0.75 C 11.929688 -1 12.351562 -1.492188 12.6875 -2.234375 L 18.984375 -16.3125 Z M 24.03125 -14.0625 "/></g></g></g><g fill="#291942" fill-opacity="1"><g transform="translate(246.478691, 75.551139)"><g><path d="M 15.65625 5.46875 L 8.578125 0.84375 L 5.25 3.4375 L 0.4375 0.28125 L 19.671875 -14.1875 L 25.015625 -10.6875 L 19.484375 12.75 L 14.609375 9.5625 Z M 16.796875 1.125 L 19 -7.34375 L 12.125 -1.921875 Z M 16.796875 1.125 "/></g></g></g></svg>