<?xml version="1.0" encoding="utf-8"?>
<!-- Generator: Adobe Illustrator 16.0.0, SVG Export Plug-In . SVG Version: 6.00 Build 0)  -->
<!DOCTYPE svg PUBLIC "-//W3C//DTD SVG 1.1//EN" "http://www.w3.org/Graphics/SVG/1.1/DTD/svg11.dtd">
<svg version="1.1" xmlns="http://www.w3.org/2000/svg" xmlns:xlink="http://www.w3.org/1999/xlink" x="0px" y="0px"
	 width="1203.299px" height="733.334px" viewBox="0 0 1203.299 733.334" enable-background="new 0 0 1203.299 733.334"
	 xml:space="preserve">
<g id="Layer_1">
</g>
<g id="Layer_2">
</g>
<g id="Layer_4">
</g>
<g id="Layer_3">
	<g>
		<g>
			<rect x="134.983" y="131.723" fill="#007BC1" width="66.666" height="66.666"/>
			<g>
				<rect x="134.983" y="265.055" width="66.666" height="200"/>
				<path d="M134.983,531.721h58.418c90.861-0.042,138.803-66.686,138.803-130.555c0-72.222-47.221-136.111-130.555-136.111v-66.666
					c127.445,0,200,105.556,200,199.998c0,125.002-102.777,200.002-205.555,200.002v-0.002h-61.111V531.721z"/>
			</g>
		</g>
		<g>
			<path d="M978.37,426.166c0-5.318-4.281-12.127-12.99-12.127c-11,0-14.541,9.434-14.541,12.127H978.37z M929.603,431.623
				c0-20.191,14.158-34.799,35.504-34.799c19.391,0,34.115,13.336,34.115,33.45c0,1.113-0.02,2.279-0.072,3.485
				c-0.166,3.858-0.748,4.485-0.436,4.485h-47.373c1.393,6.644,6.893,11.019,14.268,11.019c3.068,0,5.625-0.458,7.771-1.583
				c1.188-0.623,2.459-1.995,2.053-2.069h22.074c-3.674,12.905-15.539,20.971-31.438,20.971
				C944.171,466.582,929.603,451.993,929.603,431.623z"/>
			<polygon points="773.712,398.351 738.755,481.724 734.095,492.834 710.853,492.834 715.509,481.723 722.149,465.88 
				690.714,398.351 714.228,398.351 733.228,439.458 750.45,398.351 			"/>
			<polygon points="674.046,465.056 607.38,465.056 607.38,453.944 642.163,415.056 607.38,415.056 607.38,398.387 674.046,398.387 
				674.046,409.5 640.065,448.338 674.046,448.338 			"/>
			<path d="M562.937,430.528c0-9.498-5.021-14.041-12.305-14.041c-4.152,0-11.553,2.348-15.408,6.756v41.813h-22.289v-66.705h22.289
				v4.524c5.365-4.27,14.289-6.601,21.457-6.601c16.924,0,28.477,11.691,28.477,30.67v38.111h-22.221V430.528z"/>
			<path d="M840.714,430.528c0-9.498-5.02-14.041-12.305-14.041c-4.152,0-11.551,2.348-15.408,6.756v41.813h-22.287v-66.705h22.287
				v4.524c5.367-4.27,14.291-6.601,21.459-6.601c16.922,0,28.475,11.691,28.475,30.67v38.111h-22.221V430.528z"/>
			<rect x="465.713" y="365.055" width="22.222" height="22.223"/>
			<rect x="629.769" y="365.055" width="22.223" height="22.223"/>
			<rect x="885.157" y="365.055" width="22.223" height="22.223"/>
			<rect x="1043.491" y="398.373" fill="#007BC1" width="22.223" height="22.221"/>
			<rect x="1021.271" y="420.615" width="22.221" height="44.441"/>
			<rect x="885.157" y="398.373" width="22.223" height="66.682"/>
			<rect x="465.713" y="398.388" width="22.221" height="66.67"/>
			<path fill="none" d="M607.38,453.944"/>
			<path fill="none" d="M651.825,403.944"/>
			<g>
				<path d="M873.337,531.722v66.667h-22.322v-4.311c-5.396,4.125-11.188,6.48-18.354,6.48c-16.963,0-28.543-11.741-28.543-30.783
					v-38.054h22.223v34.638c0,9.524,5.082,14.037,12.385,14.037c4.145,0,8.525-2.337,12.391-6.615v-42.06H873.337z"/>
				<path d="M779.118,560.294v38.095h-22.223v-34.54c0-9.502-4.809-14.056-12.254-14.056c-3.449,0-6.885,1.51-10.223,5.535
					c0.162,1.627,0.295,3.281,0.295,4.966v38.095h-22.34v-34.54c0-9.502-4.691-14.056-11.992-14.056
					c-3.457,0-6.873,1.649-10.191,5.949v42.646h-22.223l-0.059-66.667h22.34l0.061,3.854c4.553-3.842,9.244-6.043,16.686-6.043
					c8.404,0,15.568,3.183,20.535,8.954c7.051-6.185,13.799-8.954,23.734-8.954C767.263,529.532,779.118,541.252,779.118,560.294z"
					/>
				<path d="M608.513,531.117c21.1,0,36.258,14.764,36.258,34.885c0,20.416-15.158,35.609-36.258,35.609
					c-21.104,0-36.277-15.193-36.277-35.609C572.235,545.881,587.409,531.117,608.513,531.117z M623.667,566.156
					c0-8.697-6.047-15.725-15.018-15.725c-9.109,0-15.174,7.027-15.174,15.725c0,8.951,6.064,16.158,15.174,16.158
					C617.62,582.314,623.667,575.107,623.667,566.156z"/>
				<path d="M504.257,503.944c29.962,0,51.626,19.556,51.626,47.548c0,28.414-21.664,48.109-51.626,48.109h-38.544v-95.657H504.257z
					 M503.791,580.171c16.617,0,29.453-12.386,29.453-28.699c0-15.86-12.836-28.093-29.453-28.093h-15.856v56.792H503.791z"/>
			</g>
		</g>
		<rect fill="none" width="1203.299" height="733.334"/>
	</g>
</g>
<g id="Layer_6" display="none">
</g>
<g id="Layer_5" display="none">
</g>
</svg>
