<?xml version="1.0" encoding="utf-8"?>
<!-- Generator: Adobe Illustrator 16.0.0, SVG Export Plug-In . SVG Version: 6.00 Build 0)  -->
<!DOCTYPE svg PUBLIC "-//W3C//DTD SVG 1.1//EN" "http://www.w3.org/Graphics/SVG/1.1/DTD/svg11.dtd">
<svg version="1.1" id="Warstwa_1" xmlns="http://www.w3.org/2000/svg" xmlns:xlink="http://www.w3.org/1999/xlink" x="0px" y="0px"
	 width="472.915px" height="168.97px" viewBox="0 0 472.915 168.97" enable-background="new 0 0 472.915 168.97"
	 xml:space="preserve">
<g>
	<g>
		<path d="M231.984,44.633h-1.621l-3.025,16.418h-2.832l-4.209-15.318l-3.74,15.318h-2.887l-3.492-16.418h-1.623v-2.668h4.207
			l2.695,14.246l3.301-14.246h3.217l3.713,14.246l2.227-14.246h4.07V44.633z"/>
		<path d="M247.55,44.633h-1.623l-4.234,7.811v5.939h1.705v2.668h-6.49v-2.668h1.732v-5.803l-4.291-7.947h-1.621v-2.668h3.822
			l3.74,7.811l3.711-7.811h3.549V44.633z"/>
		<path d="M261.74,57.586c0,1.062-0.299,1.906-0.895,2.529s-1.398,0.936-2.406,0.936h-9.873v-2.668h1.623v-13.75h-1.623v-2.668
			h9.873c1.008,0,1.811,0.312,2.406,0.936s0.895,1.467,0.895,2.529V57.586z M258.687,56.816V46.173c0-1.026-0.385-1.54-1.156-1.54
			h-4.289v13.75h4.289C258.302,58.383,258.687,57.861,258.687,56.816z"/>
		<path d="M276.287,61.051h-12.814v-2.476l8.91-13.942h-5.914v3.217h-2.996v-5.885h12.484v2.42l-8.855,13.998h6.215v-3.272h2.971
			V61.051z"/>
		<path d="M283.986,61.051h-6.297v-2.668h1.623v-13.75h-1.623v-2.668h6.297v2.668h-1.621v13.75h1.621V61.051z"/>
		<path d="M300.927,61.051h-4.152l-1.486-6.023h-5.225l-1.43,6.023h-3.74v-2.668h1.457l4.346-16.418h4.4l4.344,16.418h1.486V61.051z
			 M294.683,52.499l-1.951-8.332l-2.035,8.332H294.683z"/>
		<path d="M314.457,61.051H302v-2.668h1.621v-5.17L302,54.34v-2.75l1.621-1.154v-5.803H302v-2.668h6.406v2.668h-1.732v3.877
			l3.52-2.447v2.777l-3.52,2.476v7.067h5.061v-3.822h2.723V61.051z"/>
		<path d="M215.099,94.052h-6.297v-2.668h1.623v-13.75h-1.623v-2.668h6.297v2.668h-1.623v13.75h1.623V94.052z"/>
		<path d="M232.562,77.634h-1.65v16.418h-2.906l-7.488-14.189c0.164,1.117,0.248,2.1,0.248,2.941v11.248h-4.455v-2.668h1.648v-13.75
			h-1.648v-2.668h4.811l7.23,14.162c-0.162-1.135-0.244-2.107-0.244-2.914V74.966h4.455V77.634z"/>
		<path d="M246.339,80.88h-2.889v-3.246h-5.031v5.279h6.297v2.668h-6.297v5.803h1.814v2.668h-6.49v-2.668h1.623v-13.75h-1.623
			v-2.668h12.596V80.88z"/>
		<path d="M259.923,90.587c0,1.062-0.303,1.906-0.908,2.529c-0.604,0.623-1.41,0.936-2.42,0.936h-5.416
			c-1.01,0-1.811-0.312-2.406-0.936s-0.895-1.467-0.895-2.529V78.431c0-1.062,0.299-1.906,0.895-2.529s1.396-0.936,2.406-0.936
			h5.416c1.01,0,1.816,0.312,2.42,0.936c0.605,0.623,0.908,1.467,0.908,2.529V90.587z M256.871,89.815V79.175
			c0-1.027-0.377-1.541-1.133-1.541h-3.646c-0.773,0-1.16,0.514-1.16,1.541v10.641c0,1.045,0.387,1.568,1.16,1.568h3.646
			C256.494,91.384,256.871,90.86,256.871,89.815z"/>
		<path d="M276.011,94.052h-4.676v-6.82c0-1.045-0.375-1.568-1.127-1.568h-3.988v8.389h-4.674v-2.668h1.621v-13.75h-1.621v-2.668
			h9.486c1.008,0,1.811,0.312,2.406,0.936s0.895,1.467,0.895,2.529v3.08c0,1.523-0.854,2.402-2.559,2.641
			c0.973,0.238,1.65,0.629,2.035,1.168c0.385,0.541,0.578,1.344,0.578,2.406v3.658h1.623V94.052z M271.281,81.567v-2.393
			c0-1.027-0.385-1.541-1.154-1.541h-3.906v5.5h3.906C270.896,83.134,271.281,82.612,271.281,81.567z"/>
		<path d="M296.195,94.052h-4.482V79.229l-3.959,9.24h-2.117l-4.291-9.24v14.822h-4.455v-2.668h1.65v-13.75h-1.65v-2.668h4.979
			l4.729,10.533l4.621-10.533h4.977v2.668h-1.678v13.75h1.678V94.052z"/>
		<path d="M313.107,94.052h-4.152l-1.484-6.023h-5.225l-1.43,6.023h-3.74v-2.668h1.457l4.346-16.418h4.398l4.346,16.418h1.484
			V94.052z M306.865,85.499l-1.951-8.332l-2.035,8.332H306.865z"/>
		<path d="M326.775,80.329h-2.805v-2.695h-3.025v13.75h1.787v2.668h-6.627v-2.668h1.787v-13.75h-3.053v2.695h-2.805v-5.363h14.74
			V80.329z"/>
		<path d="M342.671,77.634h-1.623l-4.236,7.811v5.939h1.705v2.668h-6.49v-2.668h1.734v-5.803l-4.291-7.947h-1.623v-2.668h3.822
			l3.74,7.811l3.713-7.811h3.549V77.634z"/>
		<path d="M358.152,94.052h-4.676v-6.711c0-1.045-0.385-1.566-1.154-1.566h-3.959v8.277h-4.676v-2.668h1.623v-13.75h-1.623v-2.668
			h4.676v8.58l5.086-8.58h3.768v2.668h-2.227l-3.686,5.666h1.898c1.008,0,1.814,0.311,2.42,0.934
			c0.604,0.625,0.906,1.467,0.906,2.531v4.619h1.623V94.052z"/>
		<path d="M365.275,94.052h-6.297v-2.668h1.621v-13.75h-1.621v-2.668h6.297v2.668h-1.623v13.75h1.623V94.052z"/>
		<path d="M215.099,127.052h-6.297v-2.668h1.623v-13.75h-1.623v-2.668h6.297v2.668h-1.623v13.75h1.623V127.052z"/>
		<path d="M237.759,113.329h-2.805v-2.695h-3.025v13.75h1.787v2.668h-6.627v-2.668h1.787v-13.75h-3.053v2.695h-2.805v-5.363h14.74
			V113.329z"/>
		<path d="M252.279,127.052h-13.254v-2.668h1.621v-13.75h-1.621v-2.668h13.006v5.912h-2.666v-3.244h-5.666v5.279h6.078v2.559h-6.078
			v5.912h5.857v-3.41h2.723V127.052z"/>
		<path d="M266.277,127.052h-12.486v-2.668h1.623v-13.75h-1.623v-2.668h6.436v2.668h-1.76v13.75h5.061v-3.822h2.75V127.052z"/>
		<path d="M280.603,127.052h-13.254v-2.668h1.623v-13.75h-1.623v-2.668h13.008v5.912h-2.668v-3.244h-5.666v5.279h6.078v2.559h-6.078
			v5.912h5.859v-3.41h2.721V127.052z"/>
		<path d="M296.582,127.052h-4.676v-6.711c0-1.045-0.385-1.566-1.154-1.566h-3.961v8.277h-4.674v-2.668h1.621v-13.75h-1.621v-2.668
			h4.674v8.58l5.088-8.58h3.768v2.668h-2.227l-3.686,5.664h1.896c1.008,0,1.816,0.312,2.42,0.936
			c0.605,0.623,0.908,1.467,0.908,2.531v4.619h1.623V127.052z"/>
		<path d="M309.863,123.587c0,1.062-0.303,1.906-0.906,2.529c-0.605,0.623-1.412,0.936-2.42,0.936h-5.418
			c-1.008,0-1.811-0.312-2.406-0.936s-0.895-1.467-0.895-2.529v-12.156c0-1.062,0.299-1.906,0.895-2.529s1.398-0.936,2.406-0.936
			h5.418c1.008,0,1.814,0.312,2.42,0.936c0.604,0.623,0.906,1.467,0.906,2.529V123.587z M306.81,122.815v-10.643
			c0-1.025-0.377-1.539-1.131-1.539h-3.648c-0.773,0-1.16,0.514-1.16,1.539v10.643c0,1.045,0.387,1.568,1.16,1.568h3.648
			C306.433,124.384,306.81,123.86,306.81,122.815z"/>
		<path d="M330.791,127.052h-4.482v-14.822l-3.961,9.24h-2.117l-4.289-9.24v14.822h-4.455v-2.668h1.65v-13.75h-1.65v-2.668h4.977
			l4.73,10.533l4.621-10.533h4.977v2.668h-1.678v13.75h1.678V127.052z"/>
		<path d="M347.181,110.634h-1.678v12.348c0,1.246-0.354,2.236-1.057,2.971c-0.705,0.732-1.643,1.1-2.812,1.1h-4.225
			c-1.17,0-2.107-0.367-2.812-1.1c-0.705-0.734-1.057-1.725-1.057-2.971v-12.348h-1.65v-2.668h4.703v14.85
			c0,1.045,0.375,1.568,1.127,1.568h3.822c0.771,0,1.156-0.523,1.156-1.568v-14.85h4.482V110.634z"/>
		<path d="M364.617,110.634h-1.65v16.418h-2.908l-7.486-14.191c0.164,1.119,0.246,2.1,0.246,2.943v11.248h-4.453v-2.668h1.648
			v-13.75h-1.648v-2.668h4.811l7.23,14.162c-0.162-1.135-0.244-2.107-0.244-2.914v-11.248h4.455V110.634z"/>
		<path d="M372.095,127.052h-6.297v-2.668h1.623v-13.75h-1.623v-2.668h6.297v2.668h-1.621v13.75h1.621V127.052z"/>
		<path d="M387.771,127.052h-4.676v-6.711c0-1.045-0.385-1.566-1.154-1.566h-3.959v8.277h-4.676v-2.668h1.623v-13.75h-1.623v-2.668
			h4.676v8.58l5.086-8.58h3.768v2.668h-2.227l-3.686,5.664h1.898c1.008,0,1.814,0.312,2.42,0.936
			c0.604,0.623,0.906,1.467,0.906,2.531v4.619h1.623V127.052z"/>
		<path d="M404.849,127.052h-4.152l-1.486-6.023h-5.225l-1.43,6.023h-3.74v-2.668h1.457l4.346-16.418h4.4l4.344,16.418h1.486
			V127.052z M398.607,118.499l-1.953-8.332l-2.035,8.332H398.607z"/>
		<path d="M417.8,127.052h-8.305c-1.008,0-1.811-0.312-2.406-0.936s-0.893-1.467-0.893-2.529v-12.156
			c0-1.062,0.297-1.906,0.893-2.529s1.398-0.936,2.406-0.936h8.305v5.996h-2.693v-3.328h-4.703c-0.77,0-1.154,0.514-1.154,1.539
			v10.643c0,1.045,0.385,1.568,1.154,1.568h4.703v-3.383h2.693V127.052z"/>
		<path d="M427.343,110.634h-1.621v12.953c0,1.062-0.303,1.906-0.908,2.529s-1.412,0.936-2.42,0.936h-3.768v-2.668h2.887
			c0.771,0,1.156-0.523,1.156-1.568v-12.182h-1.844v-2.668h6.518V110.634z"/>
		<path d="M434.796,127.052H428.5v-2.668h1.621v-13.75H428.5v-2.668h6.297v2.668h-1.623v13.75h1.623V127.052z"/>
	</g>
	<path fill="#C2C593" d="M139.456,113.667l-3.334-3.379c14.799-14.938,14.799-39.159,0-54.098l3.334-3.377
		C156.106,69.618,156.106,96.868,139.456,113.667 M126.077,100.155c9.248-9.342,9.248-24.482,0-33.829l3.395-3.428
		c11.123,11.235,11.123,29.452,0,40.684L126.077,100.155z M119.101,93.108c-5.4,5.449-14.156,5.449-19.557,0
		c-5.396-5.449-5.396-14.283,0-19.736c5.4-5.444,14.156-5.444,19.557,0C124.501,78.825,124.501,87.659,119.101,93.108
		 M92.562,100.155l-3.393,3.428c-11.129-11.232-11.129-29.449,0-40.684l3.393,3.428C83.313,75.673,83.313,90.813,92.562,100.155
		 M79.183,113.667c-16.645-16.799-16.645-44.049,0-60.854l3.35,3.377c-14.801,14.939-14.801,39.161,0,54.098L79.183,113.667z
		 M108.983,13.62c-39.137,0-70.865,32.027-70.865,71.54c0,34.781,24.6,63.762,57.191,70.191l6.783-52.568
		c4.656,1.752,9.811,1.752,14.459,0l6.768,52.451c32.264-6.693,56.531-35.521,56.531-70.074
		C179.851,45.647,148.122,13.62,108.983,13.62"/>
</g>
</svg>
