<svg xmlns="http://www.w3.org/2000/svg" xmlns:xlink="http://www.w3.org/1999/xlink" width="1000" zoomAndPan="magnify" viewBox="0 0 750 225" height="300" preserveAspectRatio="xMidYMid meet" version="1.0"><defs><g/><clipPath id="2271780fb9"><rect x="0" width="738" y="0" height="155"/></clipPath><clipPath id="027a48edb2"><rect x="0" width="422" y="0" height="32"/></clipPath></defs><g transform="matrix(1, 0, 0, 1, 3, 18)"><g clip-path="url(#2271780fb9)"><g fill="#000000" fill-opacity="1"><g transform="translate(0.263951, 111.427531)"><g><path d="M 72.546875 -55.46875 C 78.472656 -49.007812 81.4375 -41.085938 81.4375 -31.703125 C 81.4375 -22.328125 78.472656 -14.390625 72.546875 -7.890625 C 66.628906 -1.398438 59.101562 1.84375 49.96875 1.84375 C 41.582031 1.84375 34.675781 -0.785156 29.25 -6.046875 L 29.25 32.078125 L 7.40625 32.078125 L 7.40625 -63.296875 L 29 -63.296875 L 29 -56.140625 L 29.25 -56.140625 C 34.675781 -62.148438 41.582031 -65.15625 49.96875 -65.15625 C 59.101562 -65.15625 66.628906 -61.925781 72.546875 -55.46875 Z M 53.96875 -20.96875 C 56.8125 -23.769531 58.234375 -27.347656 58.234375 -31.703125 C 58.234375 -36.066406 56.875 -39.625 54.15625 -42.375 C 51.445312 -45.132812 47.875 -46.515625 43.4375 -46.515625 C 39.15625 -46.515625 35.632812 -45.113281 32.875 -42.3125 C 30.125 -39.519531 28.75 -35.988281 28.75 -31.71875 C 28.75 -27.351562 30.164062 -23.769531 33 -20.96875 C 35.84375 -18.175781 39.320312 -16.78125 43.4375 -16.78125 C 47.625 -16.78125 51.132812 -18.175781 53.96875 -20.96875 Z M 53.96875 -20.96875 "/></g></g></g><g fill="#000000" fill-opacity="1"><g transform="translate(72.920525, 111.427531)"><g><path d="M 7.40625 0 L 7.40625 -63.296875 L 29.25 -63.296875 L 29.25 -54.171875 L 29.484375 -54.171875 C 29.648438 -54.492188 29.914062 -54.898438 30.28125 -55.390625 C 30.65625 -55.890625 31.457031 -56.753906 32.6875 -57.984375 C 33.925781 -59.222656 35.242188 -60.335938 36.640625 -61.328125 C 38.046875 -62.316406 39.859375 -63.203125 42.078125 -63.984375 C 44.296875 -64.765625 46.554688 -65.15625 48.859375 -65.15625 C 51.242188 -65.15625 53.585938 -64.820312 55.890625 -64.15625 C 58.191406 -63.5 59.878906 -62.84375 60.953125 -62.1875 L 62.6875 -61.203125 L 53.546875 -42.6875 C 50.835938 -44.988281 47.054688 -46.140625 42.203125 -46.140625 C 39.566406 -46.140625 37.300781 -45.5625 35.40625 -44.40625 C 33.519531 -43.257812 32.1875 -41.863281 31.40625 -40.21875 C 30.625 -38.570312 30.066406 -37.171875 29.734375 -36.015625 C 29.410156 -34.867188 29.25 -33.96875 29.25 -33.3125 L 29.25 0 Z M 7.40625 0 "/></g></g></g><g fill="#000000" fill-opacity="1"><g transform="translate(122.755216, 111.427531)"><g><path d="M 11.71875 -7.828125 C 5.800781 -14.285156 2.84375 -22.203125 2.84375 -31.578125 C 2.84375 -40.960938 5.800781 -48.90625 11.71875 -55.40625 C 17.644531 -61.90625 25.171875 -65.15625 34.296875 -65.15625 C 42.691406 -65.15625 49.601562 -62.519531 55.03125 -57.25 L 55.03125 -63.296875 L 76.875 -63.296875 L 76.875 0 L 55.28125 0 L 55.28125 -7.15625 L 55.03125 -7.15625 C 49.601562 -1.15625 42.691406 1.84375 34.296875 1.84375 C 25.171875 1.84375 17.644531 -1.378906 11.71875 -7.828125 Z M 30.28125 -42.3125 C 27.445312 -39.519531 26.03125 -35.941406 26.03125 -31.578125 C 26.03125 -27.222656 27.382812 -23.664062 30.09375 -20.90625 C 32.8125 -18.15625 36.394531 -16.78125 40.84375 -16.78125 C 45.125 -16.78125 48.640625 -18.175781 51.390625 -20.96875 C 54.148438 -23.769531 55.53125 -27.3125 55.53125 -31.59375 C 55.53125 -35.945312 54.109375 -39.519531 51.265625 -42.3125 C 48.429688 -45.113281 44.957031 -46.515625 40.84375 -46.515625 C 36.644531 -46.515625 33.125 -45.113281 30.28125 -42.3125 Z M 30.28125 -42.3125 "/></g></g></g><g fill="#000000" fill-opacity="1"><g transform="translate(195.41179, 111.427531)"><g><path d="M 34.921875 -65.15625 C 38.535156 -65.15625 42.109375 -64.742188 45.640625 -63.921875 C 49.179688 -63.097656 51.816406 -62.273438 53.546875 -61.453125 L 56.140625 -60.21875 L 48.984375 -45.90625 C 44.046875 -48.53125 39.359375 -49.84375 34.921875 -49.84375 C 32.453125 -49.84375 30.703125 -49.578125 29.671875 -49.046875 C 28.648438 -48.515625 28.140625 -47.507812 28.140625 -46.03125 C 28.140625 -45.695312 28.175781 -45.363281 28.25 -45.03125 C 28.332031 -44.707031 28.5 -44.398438 28.75 -44.109375 C 29 -43.828125 29.222656 -43.582031 29.421875 -43.375 C 29.628906 -43.164062 29.976562 -42.9375 30.46875 -42.6875 C 30.96875 -42.445312 31.359375 -42.265625 31.640625 -42.140625 C 31.929688 -42.015625 32.40625 -41.828125 33.0625 -41.578125 C 33.726562 -41.335938 34.222656 -41.15625 34.546875 -41.03125 C 34.878906 -40.90625 35.4375 -40.71875 36.21875 -40.46875 C 37 -40.226562 37.59375 -40.066406 38 -39.984375 C 40.550781 -39.242188 42.769531 -38.421875 44.65625 -37.515625 C 46.550781 -36.609375 48.546875 -35.375 50.640625 -33.8125 C 52.742188 -32.25 54.367188 -30.273438 55.515625 -27.890625 C 56.671875 -25.503906 57.25 -22.789062 57.25 -19.75 C 57.25 -5.351562 47.253906 1.84375 27.265625 1.84375 C 22.742188 1.84375 18.445312 1.144531 14.375 -0.25 C 10.300781 -1.644531 7.359375 -3.039062 5.546875 -4.4375 L 2.84375 -6.65625 L 11.71875 -21.59375 C 12.375 -21.019531 13.238281 -20.34375 14.3125 -19.5625 C 15.382812 -18.78125 17.316406 -17.707031 20.109375 -16.34375 C 22.910156 -14.988281 25.335938 -14.3125 27.390625 -14.3125 C 31.910156 -14.3125 34.171875 -15.832031 34.171875 -18.875 C 34.171875 -20.269531 33.59375 -21.359375 32.4375 -22.140625 C 31.289062 -22.929688 29.335938 -23.816406 26.578125 -24.796875 C 23.828125 -25.785156 21.671875 -26.691406 20.109375 -27.515625 C 16.160156 -29.566406 13.035156 -31.890625 10.734375 -34.484375 C 8.429688 -37.078125 7.28125 -40.515625 7.28125 -44.796875 C 7.28125 -51.210938 9.765625 -56.207031 14.734375 -59.78125 C 19.710938 -63.363281 26.441406 -65.15625 34.921875 -65.15625 Z M 34.921875 -65.15625 "/></g></g></g><g fill="#000000" fill-opacity="1"><g transform="translate(244.506315, 111.427531)"><g><path d="M 13.390625 -7.53125 C 6.359375 -13.78125 2.84375 -21.796875 2.84375 -31.578125 C 2.84375 -41.367188 6.5 -49.410156 13.8125 -55.703125 C 21.132812 -62.003906 30.1875 -65.15625 40.96875 -65.15625 C 51.582031 -65.15625 60.523438 -61.984375 67.796875 -55.640625 C 75.078125 -49.304688 78.71875 -41.285156 78.71875 -31.578125 C 78.71875 -21.878906 75.160156 -13.882812 68.046875 -7.59375 C 60.929688 -1.300781 51.90625 1.84375 40.96875 1.84375 C 29.613281 1.84375 20.421875 -1.28125 13.390625 -7.53125 Z M 30.28125 -42.3125 C 27.445312 -39.519531 26.03125 -35.941406 26.03125 -31.578125 C 26.03125 -27.222656 27.382812 -23.664062 30.09375 -20.90625 C 32.8125 -18.15625 36.394531 -16.78125 40.84375 -16.78125 C 45.125 -16.78125 48.640625 -18.175781 51.390625 -20.96875 C 54.148438 -23.769531 55.53125 -27.3125 55.53125 -31.59375 C 55.53125 -35.945312 54.109375 -39.519531 51.265625 -42.3125 C 48.429688 -45.113281 44.957031 -46.515625 40.84375 -46.515625 C 36.644531 -46.515625 33.125 -45.113281 30.28125 -42.3125 Z M 30.28125 -42.3125 "/></g></g></g><g fill="#000000" fill-opacity="1"><g transform="translate(314.448933, 111.427531)"><g><path d="M 46.265625 0 L 31.46875 0 L -2.46875 -63.296875 L 22.703125 -63.296875 L 38.125 -29.125 L 53.3125 -63.296875 L 68.359375 -63.296875 L 83.53125 -29.125 L 98.953125 -63.296875 L 124.125 -63.296875 L 90.203125 0 L 75.390625 0 L 60.828125 -32.703125 Z M 46.265625 0 "/></g></g></g><g fill="#000000" fill-opacity="1"><g transform="translate(424.484041, 111.427531)"><g><path d="M 79.703125 -63.296875 L 49.609375 -33.0625 L 82.671875 0 L 54.53125 0 L 29.25 -25.296875 L 29.25 0 L 7.40625 0 L 7.40625 -106.109375 L 29.25 -106.109375 L 29.25 -41.21875 L 51.328125 -63.296875 Z M 79.703125 -63.296875 "/></g></g></g><g fill="#000000" fill-opacity="1"><g transform="translate(492.576206, 111.427531)"><g><path d="M 11.71875 -7.828125 C 5.800781 -14.285156 2.84375 -22.203125 2.84375 -31.578125 C 2.84375 -40.960938 5.800781 -48.90625 11.71875 -55.40625 C 17.644531 -61.90625 25.171875 -65.15625 34.296875 -65.15625 C 42.691406 -65.15625 49.601562 -62.519531 55.03125 -57.25 L 55.03125 -63.296875 L 76.875 -63.296875 L 76.875 0 L 55.28125 0 L 55.28125 -7.15625 L 55.03125 -7.15625 C 49.601562 -1.15625 42.691406 1.84375 34.296875 1.84375 C 25.171875 1.84375 17.644531 -1.378906 11.71875 -7.828125 Z M 30.28125 -42.3125 C 27.445312 -39.519531 26.03125 -35.941406 26.03125 -31.578125 C 26.03125 -27.222656 27.382812 -23.664062 30.09375 -20.90625 C 32.8125 -18.15625 36.394531 -16.78125 40.84375 -16.78125 C 45.125 -16.78125 48.640625 -18.175781 51.390625 -20.96875 C 54.148438 -23.769531 55.53125 -27.3125 55.53125 -31.59375 C 55.53125 -35.945312 54.109375 -39.519531 51.265625 -42.3125 C 48.429688 -45.113281 44.957031 -46.515625 40.84375 -46.515625 C 36.644531 -46.515625 33.125 -45.113281 30.28125 -42.3125 Z M 30.28125 -42.3125 "/></g></g></g><g fill="#000000" fill-opacity="1"><g transform="translate(565.232809, 111.427531)"><g><path d="M 21.46875 -26.40625 C 25.414062 -26.40625 28.765625 -25.023438 31.515625 -22.265625 C 34.273438 -19.515625 35.65625 -16.164062 35.65625 -12.21875 C 35.65625 -8.351562 34.273438 -5.039062 31.515625 -2.28125 C 28.765625 0.46875 25.414062 1.84375 21.46875 1.84375 C 17.601562 1.84375 14.289062 0.46875 11.53125 -2.28125 C 8.78125 -5.039062 7.40625 -8.351562 7.40625 -12.21875 C 7.40625 -16.164062 8.78125 -19.515625 11.53125 -22.265625 C 14.289062 -25.023438 17.601562 -26.40625 21.46875 -26.40625 Z M 21.46875 -26.40625 "/></g></g></g><g fill="#000000" fill-opacity="1"><g transform="translate(596.686632, 111.427531)"><g><path d="M 71.4375 -28.625 L 25.546875 -28.625 C 25.546875 -24.1875 26.984375 -20.894531 29.859375 -18.75 C 32.734375 -16.613281 35.859375 -15.546875 39.234375 -15.546875 C 42.773438 -15.546875 45.570312 -16.019531 47.625 -16.96875 C 49.6875 -17.914062 52.03125 -19.785156 54.65625 -22.578125 L 70.453125 -14.6875 C 63.867188 -3.664062 52.929688 1.84375 37.640625 1.84375 C 28.097656 1.84375 19.910156 -1.421875 13.078125 -7.953125 C 6.253906 -14.492188 2.84375 -22.367188 2.84375 -31.578125 C 2.84375 -40.796875 6.253906 -48.695312 13.078125 -55.28125 C 19.910156 -61.863281 28.097656 -65.15625 37.640625 -65.15625 C 47.671875 -65.15625 55.832031 -62.253906 62.125 -56.453125 C 68.414062 -50.648438 71.5625 -42.363281 71.5625 -31.59375 C 71.5625 -30.101562 71.519531 -29.113281 71.4375 -28.625 Z M 26.15625 -40.71875 L 50.21875 -40.71875 C 49.726562 -44.007812 48.429688 -46.535156 46.328125 -48.296875 C 44.234375 -50.066406 41.539062 -50.953125 38.25 -50.953125 C 34.632812 -50.953125 31.753906 -50.003906 29.609375 -48.109375 C 27.472656 -46.222656 26.320312 -43.757812 26.15625 -40.71875 Z M 26.15625 -40.71875 "/></g></g></g><g fill="#000000" fill-opacity="1"><g transform="translate(659.474277, 111.427531)"><g><path d="M 28.015625 -63.296875 L 28.015625 -33.1875 C 28.015625 -26.9375 28.957031 -22.492188 30.84375 -19.859375 C 32.738281 -17.234375 35.945312 -15.921875 40.46875 -15.921875 C 45 -15.921875 48.207031 -17.234375 50.09375 -19.859375 C 51.988281 -22.492188 52.9375 -26.9375 52.9375 -33.1875 L 52.9375 -63.296875 L 74.78125 -63.296875 L 74.78125 -27.890625 C 74.78125 -17.359375 72.039062 -9.769531 66.5625 -5.125 C 61.09375 -0.476562 52.394531 1.84375 40.46875 1.84375 C 28.539062 1.84375 19.84375 -0.476562 14.375 -5.125 C 8.90625 -9.769531 6.171875 -17.359375 6.171875 -27.890625 L 6.171875 -63.296875 Z M 28.015625 -63.296875 "/></g></g></g></g></g><g transform="matrix(1, 0, 0, 1, 170, 139)"><g clip-path="url(#027a48edb2)"><g fill="#000000" fill-opacity="1"><g transform="translate(1.416575, 23.94113)"><g><path d="M 1.015625 -2.03125 C 0.867188 -2.269531 0.796875 -2.492188 0.796875 -2.703125 C 0.796875 -3.035156 0.96875 -3.316406 1.3125 -3.546875 C 1.476562 -3.660156 1.671875 -3.71875 1.890625 -3.71875 C 2.179688 -3.71875 2.453125 -3.597656 2.703125 -3.359375 C 3.203125 -2.785156 3.738281 -2.359375 4.3125 -2.078125 C 4.882812 -1.796875 5.566406 -1.65625 6.359375 -1.65625 C 6.984375 -1.675781 7.535156 -1.820312 8.015625 -2.09375 C 8.492188 -2.363281 8.734375 -2.804688 8.734375 -3.421875 C 8.734375 -3.984375 8.488281 -4.414062 8 -4.71875 C 7.519531 -5.019531 6.804688 -5.289062 5.859375 -5.53125 C 4.929688 -5.78125 4.160156 -6.039062 3.546875 -6.3125 C 2.929688 -6.59375 2.410156 -6.992188 1.984375 -7.515625 C 1.566406 -8.035156 1.359375 -8.71875 1.359375 -9.5625 C 1.359375 -10.300781 1.566406 -10.953125 1.984375 -11.515625 C 2.410156 -12.078125 2.972656 -12.515625 3.671875 -12.828125 C 4.378906 -13.148438 5.148438 -13.3125 5.984375 -13.3125 C 6.773438 -13.3125 7.5625 -13.160156 8.34375 -12.859375 C 9.132812 -12.566406 9.78125 -12.113281 10.28125 -11.5 C 10.476562 -11.257812 10.578125 -11.019531 10.578125 -10.78125 C 10.578125 -10.507812 10.441406 -10.25 10.171875 -10 C 10.015625 -9.851562 9.8125 -9.78125 9.5625 -9.78125 C 9.257812 -9.78125 9.019531 -9.878906 8.84375 -10.078125 C 8.488281 -10.472656 8.054688 -10.78125 7.546875 -11 C 7.046875 -11.21875 6.492188 -11.328125 5.890625 -11.328125 C 5.253906 -11.328125 4.71875 -11.195312 4.28125 -10.9375 C 3.84375 -10.675781 3.625 -10.242188 3.625 -9.640625 C 3.644531 -9.054688 3.894531 -8.625 4.375 -8.34375 C 4.863281 -8.0625 5.613281 -7.785156 6.625 -7.515625 C 7.5 -7.285156 8.226562 -7.035156 8.8125 -6.765625 C 9.394531 -6.503906 9.882812 -6.113281 10.28125 -5.59375 C 10.675781 -5.070312 10.875 -4.390625 10.875 -3.546875 C 10.875 -2.773438 10.648438 -2.101562 10.203125 -1.53125 C 9.753906 -0.957031 9.171875 -0.515625 8.453125 -0.203125 C 7.734375 0.0976562 6.96875 0.25 6.15625 0.25 C 5.113281 0.25 4.148438 0.0664062 3.265625 -0.296875 C 2.378906 -0.660156 1.628906 -1.238281 1.015625 -2.03125 Z M 5.859375 -13.9375 C 5.734375 -13.9375 5.59375 -13.992188 5.4375 -14.109375 C 5.289062 -14.222656 5.226562 -14.378906 5.25 -14.578125 C 5.25 -14.710938 5.296875 -14.863281 5.390625 -15.03125 L 6.859375 -17.484375 C 6.992188 -17.710938 7.15625 -17.898438 7.34375 -18.046875 C 7.53125 -18.203125 7.75 -18.28125 8 -18.28125 C 8.363281 -18.28125 8.640625 -18.179688 8.828125 -17.984375 C 9.023438 -17.796875 9.113281 -17.546875 9.09375 -17.234375 C 9.09375 -16.941406 8.96875 -16.65625 8.71875 -16.375 L 6.859375 -14.328125 C 6.597656 -14.066406 6.265625 -13.9375 5.859375 -13.9375 Z M 5.859375 -13.9375 "/></g></g></g><g fill="#000000" fill-opacity="1"><g transform="translate(29.447242, 23.94113)"><g><path d="M 16.953125 -13.140625 C 17.265625 -13.140625 17.53125 -13.023438 17.75 -12.796875 C 17.976562 -12.578125 18.09375 -12.289062 18.09375 -11.9375 C 18.09375 -11.820312 18.0625 -11.664062 18 -11.46875 L 14.203125 -0.75 C 14.097656 -0.476562 13.929688 -0.273438 13.703125 -0.140625 C 13.472656 -0.015625 13.222656 0.03125 12.953125 0 C 12.515625 -0.03125 12.175781 -0.28125 11.9375 -0.75 L 9.359375 -7.5 L 6.984375 -0.75 C 6.878906 -0.507812 6.734375 -0.328125 6.546875 -0.203125 C 6.367188 -0.0859375 6.171875 -0.0195312 5.953125 0 C 5.710938 0.03125 5.46875 -0.0195312 5.21875 -0.15625 C 4.976562 -0.300781 4.816406 -0.5 4.734375 -0.75 L 0.890625 -11.46875 C 0.835938 -11.613281 0.8125 -11.769531 0.8125 -11.9375 C 0.8125 -12.269531 0.921875 -12.550781 1.140625 -12.78125 C 1.359375 -13.019531 1.640625 -13.140625 1.984375 -13.140625 C 2.546875 -13.140625 2.910156 -12.890625 3.078125 -12.390625 L 6.03125 -4.015625 L 8.390625 -10.203125 C 8.585938 -10.703125 8.953125 -10.953125 9.484375 -10.953125 C 9.984375 -10.953125 10.320312 -10.703125 10.5 -10.203125 L 12.90625 -4.125 L 15.8125 -12.390625 C 16 -12.890625 16.378906 -13.140625 16.953125 -13.140625 Z M 16.953125 -13.140625 "/></g></g></g><g fill="#000000" fill-opacity="1"><g transform="translate(64.526504, 23.94113)"><g><path d="M 4 -1.1875 C 4 -0.851562 3.882812 -0.570312 3.65625 -0.34375 C 3.4375 -0.113281 3.15625 0 2.8125 0 C 2.476562 0 2.195312 -0.113281 1.96875 -0.34375 C 1.75 -0.570312 1.640625 -0.851562 1.640625 -1.1875 L 1.640625 -11.9375 C 1.640625 -12.269531 1.75 -12.550781 1.96875 -12.78125 C 2.195312 -13.019531 2.476562 -13.140625 2.8125 -13.140625 C 3.15625 -13.140625 3.4375 -13.019531 3.65625 -12.78125 C 3.882812 -12.550781 4 -12.269531 4 -11.9375 Z M 2.8125 -14.765625 C 2.332031 -14.765625 1.988281 -14.851562 1.78125 -15.03125 C 1.570312 -15.207031 1.46875 -15.484375 1.46875 -15.859375 L 1.46875 -16.265625 C 1.46875 -16.660156 1.578125 -16.941406 1.796875 -17.109375 C 2.023438 -17.273438 2.367188 -17.359375 2.828125 -17.359375 C 3.296875 -17.359375 3.632812 -17.269531 3.84375 -17.09375 C 4.050781 -16.914062 4.15625 -16.640625 4.15625 -16.265625 L 4.15625 -15.859375 C 4.15625 -15.460938 4.046875 -15.179688 3.828125 -15.015625 C 3.609375 -14.847656 3.269531 -14.765625 2.8125 -14.765625 Z M 2.8125 -14.765625 "/></g></g></g><g fill="#000000" fill-opacity="1"><g transform="translate(86.352393, 23.94113)"><g><path d="M 12.3125 -13.1875 C 12.664062 -13.1875 12.953125 -13.070312 13.171875 -12.84375 C 13.390625 -12.625 13.5 -12.332031 13.5 -11.96875 L 13.5 -1.1875 C 13.5 -0.851562 13.390625 -0.570312 13.171875 -0.34375 C 12.953125 -0.113281 12.664062 0 12.3125 0 C 11.96875 0 11.6875 -0.109375 11.46875 -0.328125 C 11.25 -0.554688 11.140625 -0.84375 11.140625 -1.1875 L 11.140625 -1.84375 C 10.710938 -1.257812 10.125 -0.765625 9.375 -0.359375 C 8.632812 0.046875 7.835938 0.25 6.984375 0.25 C 5.847656 0.25 4.820312 -0.0351562 3.90625 -0.609375 C 2.988281 -1.191406 2.269531 -2 1.75 -3.03125 C 1.226562 -4.070312 0.96875 -5.238281 0.96875 -6.53125 C 0.96875 -7.820312 1.226562 -8.984375 1.75 -10.015625 C 2.269531 -11.046875 2.984375 -11.851562 3.890625 -12.4375 C 4.804688 -13.019531 5.8125 -13.3125 6.90625 -13.3125 C 7.78125 -13.3125 8.59375 -13.128906 9.34375 -12.765625 C 10.101562 -12.398438 10.703125 -11.9375 11.140625 -11.375 L 11.140625 -11.96875 C 11.140625 -12.3125 11.25 -12.597656 11.46875 -12.828125 C 11.6875 -13.066406 11.96875 -13.1875 12.3125 -13.1875 Z M 7.25 -1.9375 C 8.03125 -1.9375 8.722656 -2.132812 9.328125 -2.53125 C 9.929688 -2.925781 10.398438 -3.472656 10.734375 -4.171875 C 11.078125 -4.867188 11.25 -5.65625 11.25 -6.53125 C 11.25 -7.394531 11.078125 -8.171875 10.734375 -8.859375 C 10.398438 -9.554688 9.929688 -10.109375 9.328125 -10.515625 C 8.722656 -10.921875 8.03125 -11.125 7.25 -11.125 C 6.46875 -11.125 5.773438 -10.925781 5.171875 -10.53125 C 4.566406 -10.132812 4.09375 -9.585938 3.75 -8.890625 C 3.414062 -8.191406 3.25 -7.40625 3.25 -6.53125 C 3.25 -5.65625 3.414062 -4.867188 3.75 -4.171875 C 4.09375 -3.472656 4.566406 -2.925781 5.171875 -2.53125 C 5.773438 -2.132812 6.46875 -1.9375 7.25 -1.9375 Z M 7.25 -1.9375 "/></g></g></g><g fill="#000000" fill-opacity="1"><g transform="translate(117.783274, 23.94113)"><g><path d="M 5.28125 -10.703125 L 5.28125 -3.296875 C 5.28125 -2.472656 5.65625 -2.0625 6.40625 -2.0625 C 6.519531 -2.0625 6.675781 -2.085938 6.875 -2.140625 C 7.070312 -2.203125 7.226562 -2.234375 7.34375 -2.234375 C 7.5625 -2.234375 7.742188 -2.140625 7.890625 -1.953125 C 8.046875 -1.773438 8.125 -1.546875 8.125 -1.265625 C 8.125 -0.921875 7.921875 -0.625 7.515625 -0.375 C 7.117188 -0.125 6.675781 0 6.1875 0 C 5.632812 0 5.128906 -0.0546875 4.671875 -0.171875 C 4.222656 -0.285156 3.820312 -0.578125 3.46875 -1.046875 C 3.113281 -1.523438 2.9375 -2.242188 2.9375 -3.203125 L 2.9375 -10.703125 L 1.484375 -10.703125 C 1.171875 -10.703125 0.910156 -10.804688 0.703125 -11.015625 C 0.492188 -11.222656 0.390625 -11.484375 0.390625 -11.796875 C 0.390625 -12.109375 0.492188 -12.363281 0.703125 -12.5625 C 0.910156 -12.757812 1.171875 -12.859375 1.484375 -12.859375 L 2.9375 -12.859375 L 2.9375 -14.953125 C 2.9375 -15.273438 3.046875 -15.550781 3.265625 -15.78125 C 3.484375 -16.019531 3.769531 -16.140625 4.125 -16.140625 C 4.457031 -16.140625 4.734375 -16.019531 4.953125 -15.78125 C 5.171875 -15.550781 5.28125 -15.273438 5.28125 -14.953125 L 5.28125 -12.859375 L 7.34375 -12.859375 C 7.664062 -12.859375 7.925781 -12.753906 8.125 -12.546875 C 8.332031 -12.335938 8.4375 -12.078125 8.4375 -11.765625 C 8.4375 -11.453125 8.332031 -11.195312 8.125 -11 C 7.925781 -10.800781 7.664062 -10.703125 7.34375 -10.703125 Z M 5.28125 -10.703125 "/></g></g></g><g fill="#000000" fill-opacity="1"><g transform="translate(143.406496, 23.94113)"><g/></g></g><g fill="#000000" fill-opacity="1"><g transform="translate(166.473346, 23.94113)"><g><path d="M 16.953125 -13.140625 C 17.265625 -13.140625 17.53125 -13.023438 17.75 -12.796875 C 17.976562 -12.578125 18.09375 -12.289062 18.09375 -11.9375 C 18.09375 -11.820312 18.0625 -11.664062 18 -11.46875 L 14.203125 -0.75 C 14.097656 -0.476562 13.929688 -0.273438 13.703125 -0.140625 C 13.472656 -0.015625 13.222656 0.03125 12.953125 0 C 12.515625 -0.03125 12.175781 -0.28125 11.9375 -0.75 L 9.359375 -7.5 L 6.984375 -0.75 C 6.878906 -0.507812 6.734375 -0.328125 6.546875 -0.203125 C 6.367188 -0.0859375 6.171875 -0.0195312 5.953125 0 C 5.710938 0.03125 5.46875 -0.0195312 5.21875 -0.15625 C 4.976562 -0.300781 4.816406 -0.5 4.734375 -0.75 L 0.890625 -11.46875 C 0.835938 -11.613281 0.8125 -11.769531 0.8125 -11.9375 C 0.8125 -12.269531 0.921875 -12.550781 1.140625 -12.78125 C 1.359375 -13.019531 1.640625 -13.140625 1.984375 -13.140625 C 2.546875 -13.140625 2.910156 -12.890625 3.078125 -12.390625 L 6.03125 -4.015625 L 8.390625 -10.203125 C 8.585938 -10.703125 8.953125 -10.953125 9.484375 -10.953125 C 9.984375 -10.953125 10.320312 -10.703125 10.5 -10.203125 L 12.90625 -4.125 L 15.8125 -12.390625 C 16 -12.890625 16.378906 -13.140625 16.953125 -13.140625 Z M 16.953125 -13.140625 "/></g></g></g><g fill="#000000" fill-opacity="1"><g transform="translate(201.552607, 23.94113)"><g/></g></g><g fill="#000000" fill-opacity="1"><g transform="translate(224.619457, 23.94113)"><g><path d="M 1.015625 -2.03125 C 0.867188 -2.269531 0.796875 -2.492188 0.796875 -2.703125 C 0.796875 -3.035156 0.96875 -3.316406 1.3125 -3.546875 C 1.476562 -3.660156 1.671875 -3.71875 1.890625 -3.71875 C 2.179688 -3.71875 2.453125 -3.597656 2.703125 -3.359375 C 3.203125 -2.785156 3.738281 -2.359375 4.3125 -2.078125 C 4.882812 -1.796875 5.566406 -1.65625 6.359375 -1.65625 C 6.984375 -1.675781 7.535156 -1.820312 8.015625 -2.09375 C 8.492188 -2.363281 8.734375 -2.804688 8.734375 -3.421875 C 8.734375 -3.984375 8.488281 -4.414062 8 -4.71875 C 7.519531 -5.019531 6.804688 -5.289062 5.859375 -5.53125 C 4.929688 -5.78125 4.160156 -6.039062 3.546875 -6.3125 C 2.929688 -6.59375 2.410156 -6.992188 1.984375 -7.515625 C 1.566406 -8.035156 1.359375 -8.71875 1.359375 -9.5625 C 1.359375 -10.300781 1.566406 -10.953125 1.984375 -11.515625 C 2.410156 -12.078125 2.972656 -12.515625 3.671875 -12.828125 C 4.378906 -13.148438 5.148438 -13.3125 5.984375 -13.3125 C 6.773438 -13.3125 7.5625 -13.160156 8.34375 -12.859375 C 9.132812 -12.566406 9.78125 -12.113281 10.28125 -11.5 C 10.476562 -11.257812 10.578125 -11.019531 10.578125 -10.78125 C 10.578125 -10.507812 10.441406 -10.25 10.171875 -10 C 10.015625 -9.851562 9.8125 -9.78125 9.5625 -9.78125 C 9.257812 -9.78125 9.019531 -9.878906 8.84375 -10.078125 C 8.488281 -10.472656 8.054688 -10.78125 7.546875 -11 C 7.046875 -11.21875 6.492188 -11.328125 5.890625 -11.328125 C 5.253906 -11.328125 4.71875 -11.195312 4.28125 -10.9375 C 3.84375 -10.675781 3.625 -10.242188 3.625 -9.640625 C 3.644531 -9.054688 3.894531 -8.625 4.375 -8.34375 C 4.863281 -8.0625 5.613281 -7.785156 6.625 -7.515625 C 7.5 -7.285156 8.226562 -7.035156 8.8125 -6.765625 C 9.394531 -6.503906 9.882812 -6.113281 10.28125 -5.59375 C 10.675781 -5.070312 10.875 -4.390625 10.875 -3.546875 C 10.875 -2.773438 10.648438 -2.101562 10.203125 -1.53125 C 9.753906 -0.957031 9.171875 -0.515625 8.453125 -0.203125 C 7.734375 0.0976562 6.96875 0.25 6.15625 0.25 C 5.113281 0.25 4.148438 0.0664062 3.265625 -0.296875 C 2.378906 -0.660156 1.628906 -1.238281 1.015625 -2.03125 Z M 1.015625 -2.03125 "/></g></g></g><g fill="#000000" fill-opacity="1"><g transform="translate(252.650125, 23.94113)"><g><path d="M 12.390625 -2.0625 C 12.640625 -1.789062 12.765625 -1.5 12.765625 -1.1875 C 12.765625 -0.851562 12.632812 -0.578125 12.375 -0.359375 C 12.113281 -0.140625 11.84375 -0.03125 11.5625 -0.03125 C 11.207031 -0.03125 10.921875 -0.160156 10.703125 -0.421875 L 5.8125 -5.609375 L 4.3125 -4.265625 L 4.3125 -1.1875 C 4.3125 -0.851562 4.203125 -0.570312 3.984375 -0.34375 C 3.765625 -0.113281 3.488281 0 3.15625 0 C 2.800781 0 2.515625 -0.113281 2.296875 -0.34375 C 2.078125 -0.570312 1.96875 -0.851562 1.96875 -1.1875 L 1.96875 -17.1875 C 1.96875 -17.507812 2.078125 -17.785156 2.296875 -18.015625 C 2.515625 -18.253906 2.800781 -18.375 3.15625 -18.375 C 3.488281 -18.375 3.765625 -18.253906 3.984375 -18.015625 C 4.203125 -17.785156 4.3125 -17.507812 4.3125 -17.1875 L 4.3125 -7.09375 L 10.40625 -12.6875 C 10.6875 -12.9375 10.972656 -13.0625 11.265625 -13.0625 C 11.546875 -13.0625 11.800781 -12.941406 12.03125 -12.703125 C 12.269531 -12.460938 12.390625 -12.207031 12.390625 -11.9375 C 12.390625 -11.613281 12.234375 -11.316406 11.921875 -11.046875 L 7.625 -7.21875 Z M 12.390625 -2.0625 "/></g></g></g><g fill="#000000" fill-opacity="1"><g transform="translate(282.61667, 23.94113)"><g><path d="M 8.25 -13.3125 C 8.675781 -13.3125 9.046875 -13.195312 9.359375 -12.96875 C 9.671875 -12.75 9.828125 -12.472656 9.828125 -12.140625 C 9.828125 -11.742188 9.722656 -11.441406 9.515625 -11.234375 C 9.316406 -11.023438 9.066406 -10.921875 8.765625 -10.921875 C 8.617188 -10.921875 8.394531 -10.972656 8.09375 -11.078125 C 7.75 -11.191406 7.476562 -11.25 7.28125 -11.25 C 6.757812 -11.25 6.253906 -11.066406 5.765625 -10.703125 C 5.285156 -10.347656 4.890625 -9.859375 4.578125 -9.234375 C 4.273438 -8.617188 4.125 -7.929688 4.125 -7.171875 L 4.125 -1.1875 C 4.125 -0.851562 4.007812 -0.570312 3.78125 -0.34375 C 3.5625 -0.113281 3.28125 0 2.9375 0 C 2.582031 0 2.296875 -0.109375 2.078125 -0.328125 C 1.867188 -0.554688 1.765625 -0.84375 1.765625 -1.1875 L 1.765625 -11.8125 C 1.765625 -12.144531 1.875 -12.425781 2.09375 -12.65625 C 2.320312 -12.894531 2.601562 -13.015625 2.9375 -13.015625 C 3.28125 -13.015625 3.5625 -12.894531 3.78125 -12.65625 C 4.007812 -12.425781 4.125 -12.144531 4.125 -11.8125 L 4.125 -10.546875 C 4.488281 -11.359375 5.035156 -12.015625 5.765625 -12.515625 C 6.492188 -13.023438 7.320312 -13.289062 8.25 -13.3125 Z M 8.25 -13.3125 "/></g></g></g><g fill="#000000" fill-opacity="1"><g transform="translate(309.058918, 23.94113)"><g><path d="M 14.078125 -6.5 C 14.078125 -5.207031 13.785156 -4.046875 13.203125 -3.015625 C 12.628906 -1.992188 11.835938 -1.191406 10.828125 -0.609375 C 9.828125 -0.0351562 8.722656 0.25 7.515625 0.25 C 6.304688 0.25 5.203125 -0.0351562 4.203125 -0.609375 C 3.203125 -1.191406 2.410156 -1.992188 1.828125 -3.015625 C 1.253906 -4.046875 0.96875 -5.207031 0.96875 -6.5 C 0.96875 -7.789062 1.253906 -8.957031 1.828125 -10 C 2.410156 -11.039062 3.203125 -11.851562 4.203125 -12.4375 C 5.203125 -13.019531 6.304688 -13.3125 7.515625 -13.3125 C 8.722656 -13.3125 9.828125 -13.019531 10.828125 -12.4375 C 11.835938 -11.851562 12.628906 -11.039062 13.203125 -10 C 13.785156 -8.957031 14.078125 -7.789062 14.078125 -6.5 Z M 11.71875 -6.5 C 11.71875 -7.394531 11.53125 -8.191406 11.15625 -8.890625 C 10.789062 -9.597656 10.285156 -10.144531 9.640625 -10.53125 C 9.003906 -10.925781 8.296875 -11.125 7.515625 -11.125 C 6.742188 -11.125 6.035156 -10.925781 5.390625 -10.53125 C 4.753906 -10.144531 4.25 -9.597656 3.875 -8.890625 C 3.507812 -8.191406 3.328125 -7.394531 3.328125 -6.5 C 3.328125 -5.625 3.507812 -4.835938 3.875 -4.140625 C 4.25 -3.453125 4.753906 -2.910156 5.390625 -2.515625 C 6.035156 -2.128906 6.742188 -1.9375 7.515625 -1.9375 C 8.296875 -1.9375 9.003906 -2.128906 9.640625 -2.515625 C 10.285156 -2.910156 10.789062 -3.453125 11.15625 -4.140625 C 11.53125 -4.835938 11.71875 -5.625 11.71875 -6.5 Z M 7.4375 -14 C 7.3125 -14 7.171875 -14.054688 7.015625 -14.171875 C 6.867188 -14.285156 6.804688 -14.441406 6.828125 -14.640625 C 6.828125 -14.773438 6.875 -14.925781 6.96875 -15.09375 L 8.4375 -17.546875 C 8.570312 -17.773438 8.734375 -17.960938 8.921875 -18.109375 C 9.109375 -18.265625 9.328125 -18.34375 9.578125 -18.34375 C 9.941406 -18.34375 10.21875 -18.242188 10.40625 -18.046875 C 10.601562 -17.859375 10.691406 -17.609375 10.671875 -17.296875 C 10.671875 -17.003906 10.546875 -16.71875 10.296875 -16.4375 L 8.4375 -14.390625 C 8.175781 -14.128906 7.84375 -14 7.4375 -14 Z M 7.4375 -14 "/></g></g></g><g fill="#000000" fill-opacity="1"><g transform="translate(340.29124, 23.94113)"><g><path d="M 7.421875 -13.3125 C 8.734375 -13.3125 9.820312 -13.101562 10.6875 -12.6875 C 11.550781 -12.269531 11.984375 -11.738281 11.984375 -11.09375 C 11.984375 -10.8125 11.894531 -10.554688 11.71875 -10.328125 C 11.539062 -10.109375 11.3125 -10 11.03125 -10 C 10.8125 -10 10.640625 -10.03125 10.515625 -10.09375 C 10.390625 -10.164062 10.21875 -10.273438 10 -10.421875 C 9.90625 -10.523438 9.75 -10.644531 9.53125 -10.78125 C 9.332031 -10.875 9.050781 -10.953125 8.6875 -11.015625 C 8.320312 -11.085938 7.992188 -11.125 7.703125 -11.125 C 6.835938 -11.125 6.070312 -10.925781 5.40625 -10.53125 C 4.75 -10.132812 4.238281 -9.582031 3.875 -8.875 C 3.507812 -8.175781 3.328125 -7.394531 3.328125 -6.53125 C 3.328125 -5.65625 3.503906 -4.867188 3.859375 -4.171875 C 4.210938 -3.472656 4.710938 -2.925781 5.359375 -2.53125 C 6.003906 -2.132812 6.742188 -1.9375 7.578125 -1.9375 C 8.429688 -1.9375 9.125 -2.066406 9.65625 -2.328125 C 9.769531 -2.398438 9.925781 -2.507812 10.125 -2.65625 C 10.289062 -2.789062 10.4375 -2.890625 10.5625 -2.953125 C 10.6875 -3.015625 10.84375 -3.046875 11.03125 -3.046875 C 11.351562 -3.046875 11.609375 -2.941406 11.796875 -2.734375 C 11.992188 -2.535156 12.09375 -2.269531 12.09375 -1.9375 C 12.09375 -1.59375 11.875 -1.25 11.4375 -0.90625 C 11 -0.5625 10.410156 -0.28125 9.671875 -0.0625 C 8.929688 0.144531 8.140625 0.25 7.296875 0.25 C 6.035156 0.25 4.925781 -0.0390625 3.96875 -0.625 C 3.007812 -1.21875 2.269531 -2.03125 1.75 -3.0625 C 1.226562 -4.101562 0.96875 -5.257812 0.96875 -6.53125 C 0.96875 -7.800781 1.238281 -8.953125 1.78125 -9.984375 C 2.332031 -11.023438 3.09375 -11.835938 4.0625 -12.421875 C 5.039062 -13.015625 6.160156 -13.3125 7.421875 -13.3125 Z M 7.421875 -13.3125 "/></g></g></g><g fill="#000000" fill-opacity="1"><g transform="translate(369.2402, 23.94113)"><g><path d="M 4 -1.1875 C 4 -0.851562 3.882812 -0.570312 3.65625 -0.34375 C 3.4375 -0.113281 3.15625 0 2.8125 0 C 2.476562 0 2.195312 -0.113281 1.96875 -0.34375 C 1.75 -0.570312 1.640625 -0.851562 1.640625 -1.1875 L 1.640625 -11.9375 C 1.640625 -12.269531 1.75 -12.550781 1.96875 -12.78125 C 2.195312 -13.019531 2.476562 -13.140625 2.8125 -13.140625 C 3.15625 -13.140625 3.4375 -13.019531 3.65625 -12.78125 C 3.882812 -12.550781 4 -12.269531 4 -11.9375 Z M 2.8125 -14.765625 C 2.332031 -14.765625 1.988281 -14.851562 1.78125 -15.03125 C 1.570312 -15.207031 1.46875 -15.484375 1.46875 -15.859375 L 1.46875 -16.265625 C 1.46875 -16.660156 1.578125 -16.941406 1.796875 -17.109375 C 2.023438 -17.273438 2.367188 -17.359375 2.828125 -17.359375 C 3.296875 -17.359375 3.632812 -17.269531 3.84375 -17.09375 C 4.050781 -16.914062 4.15625 -16.640625 4.15625 -16.265625 L 4.15625 -15.859375 C 4.15625 -15.460938 4.046875 -15.179688 3.828125 -15.015625 C 3.609375 -14.847656 3.269531 -14.765625 2.8125 -14.765625 Z M 2.8125 -14.765625 "/></g></g></g><g fill="#000000" fill-opacity="1"><g transform="translate(391.066089, 23.94113)"><g><path d="M 13.1875 -7 C 13.164062 -6.695312 13.039062 -6.441406 12.8125 -6.234375 C 12.582031 -6.035156 12.304688 -5.9375 11.984375 -5.9375 L 3.25 -5.9375 C 3.363281 -4.726562 3.820312 -3.757812 4.625 -3.03125 C 5.425781 -2.300781 6.410156 -1.9375 7.578125 -1.9375 C 8.367188 -1.9375 9.007812 -2.050781 9.5 -2.28125 C 10 -2.507812 10.441406 -2.804688 10.828125 -3.171875 C 11.078125 -3.328125 11.316406 -3.40625 11.546875 -3.40625 C 11.828125 -3.40625 12.0625 -3.304688 12.25 -3.109375 C 12.4375 -2.910156 12.53125 -2.675781 12.53125 -2.40625 C 12.53125 -2.0625 12.367188 -1.75 12.046875 -1.46875 C 11.566406 -0.988281 10.925781 -0.582031 10.125 -0.25 C 9.332031 0.0820312 8.523438 0.25 7.703125 0.25 C 6.359375 0.25 5.175781 -0.03125 4.15625 -0.59375 C 3.132812 -1.15625 2.347656 -1.941406 1.796875 -2.953125 C 1.242188 -3.960938 0.96875 -5.101562 0.96875 -6.375 C 0.96875 -7.769531 1.253906 -8.992188 1.828125 -10.046875 C 2.398438 -11.097656 3.148438 -11.90625 4.078125 -12.46875 C 5.015625 -13.03125 6.019531 -13.3125 7.09375 -13.3125 C 8.15625 -13.3125 9.148438 -13.035156 10.078125 -12.484375 C 11.003906 -11.941406 11.75 -11.191406 12.3125 -10.234375 C 12.875 -9.273438 13.164062 -8.195312 13.1875 -7 Z M 7.09375 -11.125 C 6.164062 -11.125 5.363281 -10.863281 4.6875 -10.34375 C 4.007812 -9.820312 3.566406 -9.015625 3.359375 -7.921875 L 10.671875 -7.921875 L 10.671875 -8.125 C 10.585938 -9 10.191406 -9.71875 9.484375 -10.28125 C 8.785156 -10.84375 7.988281 -11.125 7.09375 -11.125 Z M 7.09375 -11.125 "/></g></g></g></g></g><path stroke-linecap="butt" transform="matrix(0.75, 0, 0, 0.75, 219.702867, 184.140252)" fill="none" stroke-linejoin="miter" d="M 0.000344206 1.500497 L 385.510777 1.500497 " stroke="#000000" stroke-width="3" stroke-opacity="1" stroke-miterlimit="4"/></svg>