<?xml version="1.0" encoding="UTF-8"?>
<svg id="Layer_2" data-name="Layer 2" xmlns="http://www.w3.org/2000/svg" xmlns:xlink="http://www.w3.org/1999/xlink" viewBox="0 0 705.06 408.87">
  <defs>
    <style>
      .cls-1 {
        fill: none;
      }

      .cls-1, .cls-2, .cls-3, .cls-4 {
        stroke-width: 0px;
      }

      .cls-2 {
        fill: url(#linear-gradient);
      }

      .cls-3 {
        fill: #4fbda4;
      }

      .cls-4 {
        fill: #282a75;
      }
    </style>
    <linearGradient id="linear-gradient" x1="404.43" y1="146.38" x2="606.95" y2="146.38" gradientUnits="userSpaceOnUse">
      <stop offset="0" stop-color="#282a75"/>
      <stop offset="1" stop-color="#4fbda4"/>
    </linearGradient>
  </defs>
  <g id="Layer_1-2" data-name="Layer 1">
    <g>
      <rect class="cls-1" width="705.06" height="408.87"/>
      <g>
        <path class="cls-4" d="M98.11,131.98v-7.66h48.11v7.66h-48.11ZM134.93,196.22c-4.93,0-9.18-.72-12.77-2.15-3.58-1.43-6.36-3.87-8.33-7.32-1.97-3.45-2.96-8.08-2.96-13.91v-70.96h9.68v72.44c0,4.12,1.12,7.28,3.36,9.47,2.24,2.2,5.42,3.29,9.54,3.29h12.77v9.14h-11.29Z"/>
        <path class="cls-4" d="M194.73,197.7c-6.09,0-11.38-1.05-15.86-3.16-4.48-2.1-8.15-4.93-11.02-8.47-2.87-3.54-5-7.5-6.38-11.89-1.39-4.39-2.08-8.91-2.08-13.57v-1.88c0-4.57.69-9.05,2.08-13.44,1.39-4.39,3.52-8.33,6.38-11.83,2.87-3.49,6.47-6.29,10.82-8.4,4.34-2.1,9.43-3.16,15.25-3.16,7.44,0,13.64,1.66,18.61,4.97,4.97,3.32,8.71,7.55,11.22,12.7,2.51,5.15,3.76,10.68,3.76,16.6v5.24h-63.57v-7.79h56.58l-2.55,3.9c0-5.28-.92-9.92-2.75-13.91-1.84-3.99-4.53-7.12-8.06-9.41-3.54-2.28-7.95-3.43-13.24-3.43-5.56,0-10.17,1.3-13.84,3.9-3.67,2.6-6.43,6.05-8.27,10.35-1.84,4.3-2.75,9.18-2.75,14.65s.92,10.28,2.75,14.72c1.84,4.43,4.66,7.95,8.47,10.55,3.81,2.6,8.62,3.9,14.45,3.9,6.18,0,11.2-1.41,15.05-4.23,3.85-2.82,6.23-6.16,7.12-10.01h9.41c-.9,4.75-2.78,8.85-5.64,12.29-2.87,3.45-6.5,6.12-10.89,8-4.39,1.88-9.41,2.82-15.05,2.82Z"/>
        <path class="cls-4" d="M276.84,197.7c-6,0-11.22-1.05-15.66-3.16-4.43-2.1-8.13-4.97-11.09-8.6-2.96-3.63-5.17-7.64-6.65-12.03s-2.22-8.82-2.22-13.31v-1.88c0-4.57.74-9.02,2.22-13.37,1.48-4.34,3.7-8.29,6.65-11.83,2.96-3.54,6.65-6.36,11.09-8.47,4.44-2.1,9.56-3.16,15.39-3.16s11.18,1.08,15.79,3.23c4.61,2.15,8.35,5.2,11.22,9.14,2.87,3.94,4.57,8.6,5.11,13.98h-9.68c-.81-4.93-3.11-9.03-6.92-12.3-3.81-3.27-8.98-4.91-15.52-4.91-5.64,0-10.33,1.28-14.04,3.83-3.72,2.55-6.52,6-8.4,10.35-1.88,4.35-2.82,9.16-2.82,14.45s.94,10.01,2.82,14.45c1.88,4.43,4.7,7.98,8.47,10.62,3.76,2.64,8.51,3.97,14.25,3.97,4.39,0,8.22-.78,11.49-2.35,3.27-1.57,5.91-3.69,7.93-6.38s3.2-5.64,3.56-8.87h9.68c-.36,5.38-2.04,10.06-5.04,14.04-3,3.99-6.88,7.08-11.62,9.27-4.75,2.19-10.08,3.29-15.99,3.29Z"/>
        <path class="cls-4" d="M328.04,195.41v-98.11h10.08v55.5l-2.96,2.28c0-6.63.96-12.41,2.89-17.34,1.93-4.92,4.84-8.76,8.74-11.49,3.9-2.73,8.8-4.1,14.71-4.1h.54c8.6,0,15.12,2.82,19.55,8.47,4.44,5.64,6.65,13.49,6.65,23.52v41.26h-9.95v-43.41c0-6.36-1.75-11.38-5.24-15.05-3.49-3.67-8.2-5.51-14.11-5.51-6.36,0-11.42,2.04-15.19,6.12-3.76,4.08-5.64,9.43-5.64,16.06v41.79h-10.08Z"/>
        <path class="cls-3" d="M103.8,224.75v-13.98h27.82v13.98h-27.82ZM112.94,308.88v-98.11h18.68v98.11h-18.68Z"/>
        <path class="cls-3" d="M185.64,311.43c-6.27,0-11.76-1.08-16.46-3.23-4.7-2.15-8.6-5.04-11.69-8.67-3.09-3.63-5.42-7.68-6.99-12.16-1.57-4.48-2.35-9.05-2.35-13.71v-2.55c0-4.84.78-9.52,2.35-14.04,1.57-4.52,3.87-8.55,6.92-12.09,3.04-3.54,6.87-6.36,11.49-8.47,4.61-2.1,9.92-3.16,15.93-3.16,7.88,0,14.49,1.73,19.82,5.17,5.33,3.45,9.34,7.98,12.03,13.57,2.69,5.6,4.03,11.63,4.03,18.08v6.85h-64.64v-11.56h52.81l-5.64,5.64c0-4.66-.7-8.65-2.08-11.96-1.39-3.31-3.43-5.87-6.11-7.66-2.69-1.79-6.09-2.69-10.21-2.69s-7.62.96-10.48,2.89c-2.87,1.93-5.04,4.64-6.52,8.13-1.48,3.49-2.22,7.71-2.22,12.63,0,4.57.72,8.63,2.15,12.16,1.43,3.54,3.63,6.32,6.59,8.33,2.96,2.02,6.72,3.02,11.29,3.02s8.15-.92,11.02-2.76c2.87-1.83,4.7-4.1,5.51-6.79h17.34c-1.08,5.02-3.14,9.41-6.18,13.17-3.05,3.76-6.92,6.68-11.62,8.73-4.7,2.06-10.06,3.09-16.06,3.09Z"/>
        <path class="cls-3" d="M256.87,310.76c-5.29,0-9.9-.94-13.84-2.82-3.94-1.88-7.01-4.57-9.21-8.06-2.2-3.49-3.29-7.71-3.29-12.63,0-5.38,1.3-9.76,3.9-13.17,2.6-3.4,6.32-5.96,11.15-7.66,4.84-1.7,10.48-2.55,16.93-2.55h16.8v11.29h-17.07c-4.3,0-7.59,1.03-9.88,3.09-2.28,2.06-3.43,4.75-3.43,8.07s1.14,6,3.43,8.06c2.28,2.06,5.58,3.09,9.88,3.09,2.6,0,4.99-.47,7.19-1.41,2.19-.94,4.01-2.55,5.44-4.84,1.43-2.28,2.24-5.4,2.42-9.34l4.57,5.24c-.45,5.11-1.68,9.41-3.7,12.9s-4.79,6.16-8.33,8c-3.54,1.83-7.86,2.75-12.97,2.75ZM280.39,308.88v-21.64h-3.09v-24.06c0-4.12-1.03-7.23-3.09-9.34-2.06-2.1-5.2-3.16-9.41-3.16-2.24,0-4.93.05-8.06.13-3.14.09-6.3.2-9.47.34-3.18.13-6.03.29-8.53.47v-15.86c2.06-.18,4.37-.36,6.92-.54,2.55-.18,5.22-.29,8-.34,2.78-.04,5.38-.07,7.79-.07,7.53,0,13.78.99,18.75,2.96,4.97,1.97,8.74,5.09,11.29,9.34,2.55,4.26,3.83,9.79,3.83,16.6v45.15h-14.92Z"/>
        <path class="cls-3" d="M345.57,311.3c-5.2,0-9.92-.94-14.18-2.82-4.26-1.88-7.95-4.5-11.09-7.86-3.14-3.36-5.56-7.32-7.26-11.89-1.7-4.57-2.55-9.5-2.55-14.78v-2.82c0-5.2.81-10.08,2.42-14.65,1.61-4.57,3.94-8.55,6.99-11.96,3.05-3.4,6.67-6.07,10.89-8,4.21-1.92,8.91-2.89,14.11-2.89,5.73,0,10.8,1.23,15.19,3.69,4.39,2.47,7.86,6.16,10.42,11.09,2.55,4.93,3.96,11.11,4.23,18.55l-5.51-6.32v-49.86h18.81v98.11h-14.92v-30.91h3.23c-.27,7.35-1.79,13.51-4.57,18.48-2.78,4.97-6.43,8.69-10.95,11.16-4.52,2.46-9.61,3.69-15.25,3.69ZM349.73,295.58c3.67,0,7.01-.83,10.01-2.49,3-1.66,5.42-4.07,7.26-7.26,1.83-3.18,2.75-6.92,2.75-11.22v-5.38c0-4.21-.94-7.79-2.82-10.75-1.88-2.96-4.35-5.22-7.39-6.79-3.05-1.57-6.32-2.35-9.81-2.35-4.03,0-7.59.99-10.68,2.96-3.09,1.97-5.51,4.68-7.26,8.13-1.75,3.45-2.62,7.5-2.62,12.16s.89,8.71,2.69,12.16c1.79,3.45,4.23,6.12,7.32,8,3.09,1.88,6.61,2.82,10.55,2.82Z"/>
        <path class="cls-3" d="M441.92,311.43c-6.27,0-11.76-1.08-16.46-3.23-4.7-2.15-8.6-5.04-11.69-8.67-3.09-3.63-5.42-7.68-6.99-12.16-1.57-4.48-2.35-9.05-2.35-13.71v-2.55c0-4.84.78-9.52,2.35-14.04,1.57-4.52,3.87-8.55,6.92-12.09,3.05-3.54,6.88-6.36,11.49-8.47,4.61-2.1,9.92-3.16,15.93-3.16,7.88,0,14.49,1.73,19.82,5.17,5.33,3.45,9.34,7.98,12.03,13.57,2.69,5.6,4.03,11.63,4.03,18.08v6.85h-64.64v-11.56h52.82l-5.64,5.64c0-4.66-.7-8.65-2.08-11.96-1.39-3.31-3.43-5.87-6.12-7.66-2.69-1.79-6.09-2.69-10.21-2.69s-7.62.96-10.48,2.89c-2.87,1.93-5.04,4.64-6.52,8.13s-2.22,7.71-2.22,12.63c0,4.57.72,8.63,2.15,12.16,1.43,3.54,3.63,6.32,6.58,8.33,2.96,2.02,6.72,3.02,11.29,3.02s8.15-.92,11.02-2.76c2.87-1.83,4.7-4.1,5.51-6.79h17.34c-1.08,5.02-3.14,9.41-6.18,13.17-3.05,3.76-6.92,6.68-11.62,8.73-4.7,2.06-10.06,3.09-16.06,3.09Z"/>
        <path class="cls-3" d="M492.59,308.88v-72.97h14.78v30.91h-.4c0-10.39,2.24-18.3,6.72-23.72,4.48-5.42,11.06-8.13,19.76-8.13h2.69v16.26h-5.11c-6.27,0-11.13,1.7-14.58,5.11-3.45,3.41-5.17,8.29-5.17,14.65v37.9h-18.68Z"/>
        <path class="cls-3" d="M575.1,311.16c-10.04,0-17.9-2.13-23.59-6.38-5.69-4.25-8.71-10.15-9.07-17.67h16.93c.27,2.51,1.66,4.79,4.17,6.85,2.51,2.06,6.45,3.09,11.83,3.09,4.39,0,7.93-.81,10.62-2.42,2.69-1.61,4.03-3.81,4.03-6.58,0-2.33-1.01-4.21-3.02-5.65-2.02-1.43-5.49-2.42-10.42-2.96l-6.32-.67c-8.24-.81-14.56-3.11-18.95-6.92-4.39-3.81-6.59-8.85-6.59-15.12,0-5.02,1.25-9.23,3.76-12.63,2.51-3.4,5.98-5.98,10.41-7.73s9.56-2.62,15.39-2.62c8.96,0,16.21,1.97,21.77,5.91,5.55,3.94,8.47,9.77,8.74,17.47h-16.8c-.27-2.6-1.55-4.79-3.83-6.59-2.29-1.79-5.62-2.69-10.01-2.69-3.94,0-6.99.76-9.14,2.28-2.15,1.53-3.23,3.49-3.23,5.91s.87,4.12,2.62,5.38c1.75,1.25,4.59,2.1,8.53,2.55l6.45.67c8.6.9,15.34,3.27,20.23,7.12,4.88,3.85,7.32,9.05,7.32,15.59,0,4.84-1.32,9.05-3.96,12.63-2.64,3.58-6.34,6.34-11.09,8.27-4.75,1.92-10.35,2.89-16.8,2.89Z"/>
        <path class="cls-2" d="M404.43,97.31v98.11h64.1v.04h138.43v-98.15h-202.52ZM503,181.44l42.06-42.06h-22.24v-28.04h50.28s0,0,0,0h19.83v70.11h-28.04v-22.23l-22.23,22.23h-39.66Z"/>
      </g>
    </g>
  </g>
</svg>