<svg xmlns="http://www.w3.org/2000/svg" viewBox="0 0 1875.1 453.45"><defs><style>.cls-1{fill:#00a1ff;}.cls-2{fill:#8ce5b0;}</style></defs><g id="asset"><path d="M647.26,258.42a30.52,30.52,0,0,1,0-61c17,0,30,13.31,30,30.51S664,258.42,647.26,258.42Zm0-96.94c-38.63,0-67.85,28.31-67.85,66.42V332.56h36.88v-53c7.86,9.87,21.62,14.74,35.65,14.74,34.67,0,62.72-28.05,62.72-66.42s-29-66.42-67.4-66.42Zm229.65,96.94c-17.73,0-29.74-12.79-29.74-30.52s12.08-30.51,29.74-30.51,29.74,12.79,29.74,30.51S894.57,258.42,876.91,258.42Zm0-96.94c-39.09,0-67.14,27.27-67.14,66.42s28.05,66.42,67.14,66.42S944,267.05,944,227.9,916,161.48,876.91,161.48Zm-154.4,70.58v59.73h36.88V232.06c0-18.18,11.56-31.75,29.74-31.75h15.71V163.88H789.13c-40.84,0-66.68,18.44-66.68,68.11Zm550.2-34.67c11.56,0,22.4,6.62,25.58,16.49h38.37c-4.93-31-30.71-52.4-63.69-52.4-37.85,0-65.9,28.05-65.9,66.42s28,66.42,65.9,66.42c33,0,58.76-21.42,63.69-52.39h-38.37c-3.18,9.86-14,16.49-25.58,16.49-16.23,0-28.31-13.05-28.31-30.52S1256.48,197.39,1272.71,197.39Zm-257.44-74.22H978.39v31.88c0,5.65-3.18,8.83-8.83,8.83H947.68v33.44h30.71v44c0,34.41,18.18,51.62,49.93,51.62a232.34,232.34,0,0,0,31-1.95V255.63a192.13,192.13,0,0,1-23.37,1.49c-14.48,0-20.65-5.39-20.65-19.67V197.39h44V164h-44Zm396.9,135.25c-17.72,0-29.73-12.79-29.73-30.52s12.07-30.51,29.73-30.51,29.74,12.79,29.74,30.51S1429.83,258.42,1412.17,258.42Zm0-96.94c-39.08,0-67.13,27.27-67.13,66.42s28,66.42,67.13,66.42,67.14-27.27,67.14-66.42S1451.26,161.48,1412.17,161.48Zm75.9,130.38H1525V123.17h-36.88V291.86ZM315.16,161.48c-15.26,0-26.82,5.19-34.67,15V123.17H243.61V291.79h36.88V223.16c0-16.75,10.84-25.84,25.32-25.84s24.35,9.09,24.35,25.84v68.63H367V223.16c0-40.06-21.16-61.74-51.87-61.74Zm-126-38.31H152.25v31.88c0,5.65-3.18,8.83-8.83,8.83H121.48v33.44h30.71v44c0,34.41,18.18,51.62,49.93,51.62a232.44,232.44,0,0,0,31-1.95V255.63a192.38,192.38,0,0,1-23.38,1.49c-14.47,0-20.64-5.39-20.64-19.67V197.39h44V164h-44V123.17Zm222.64,90c3.44-13.31,15.52-20.9,31.49-20.9s27.53,8.63,27.53,18a2.87,2.87,0,0,1-3.18,2.92ZM416,241h88.56a86.37,86.37,0,0,0,1.95-18.44c0-34.67-25.58-61-64-61S374.89,188.82,374.89,228s27.27,66.42,65.64,66.42c30.71,0,56.29-12.27,65.45-43.31H470.07c-4.15,9.09-16.75,11.3-27.79,11.3-16.49,0-30-7.86-30-17.73A3.51,3.51,0,0,1,416,241Zm715.83,17.47c-17.73,0-29.74-12.79-29.74-30.52s12.08-30.51,29.74-30.51,29.73,12.79,29.73,30.51S1149.48,258.42,1131.82,258.42Zm0-96.94c-39.09,0-67.14,27.27-67.14,66.42s28,66.42,67.14,66.42S1199,267.05,1199,227.9,1170.9,161.48,1131.82,161.48Zm427.93,84.08a24.35,24.35,0,1,0,24.35,24.35A24.56,24.56,0,0,0,1559.75,245.56Zm193.88-48.17V164h-44V123.17h-36.88v31.88c0,5.65-3.18,8.83-8.83,8.83H1642v33.44h30.71v44c0,34.41,18.18,51.62,49.93,51.62a232.44,232.44,0,0,0,31-1.95V255.63a192.38,192.38,0,0,1-23.38,1.49c-14.48,0-20.64-5.39-20.64-19.67V197.39Zm-140.57-88.83a22.86,22.86,0,1,0,22.85,22.86A23,23,0,0,0,1613.06,108.56Zm-18.44,183.3h36.94v-128h-36.94Z"/><circle class="cls-1" cx="542.14" cy="269.97" r="24.35"/><circle class="cls-2" cx="542.14" cy="208.62" r="24.35"/><path d="M315.16,160.34c-15.26,0-26.82,5.19-34.67,15V122H243.61V290.65h36.88V222c0-16.75,10.84-25.84,25.32-25.84s24.35,9.09,24.35,25.84v68.63H367V222c0-40.06-21.16-61.75-51.87-61.75ZM189.13,122H152.25v31.88c0,5.65-3.18,8.83-8.83,8.83H121.48v33.44h30.71v44c0,34.41,18.18,51.62,49.93,51.62a232.44,232.44,0,0,0,31-1.95V254.48a190.65,190.65,0,0,1-23.38,1.5c-14.47,0-20.64-5.39-20.64-19.68V196.24h44V162.8h-44V122Zm222.64,90c3.44-13.31,15.52-20.91,31.49-20.91s27.53,8.64,27.53,18a2.87,2.87,0,0,1-3.18,2.92ZM416,239.81h88.56a86.37,86.37,0,0,0,1.95-18.44c0-34.67-25.58-61-64-61s-67.65,27.27-67.65,66.42,27.27,66.42,65.64,66.42c30.71,0,56.29-12.27,65.45-43.3H470.07c-4.15,9.09-16.75,11.29-27.79,11.29-16.49,0-30-7.85-30-17.72A3.5,3.5,0,0,1,416,239.81Z"/><path d="M647.26,257.27a30.52,30.52,0,0,1,0-61c17,0,30,13.31,30,30.52S664,257.27,647.26,257.27Zm0-96.93c-38.63,0-67.85,28.31-67.85,66.42V331.42h36.88v-53c7.86,9.86,21.62,14.73,35.65,14.73,34.67,0,62.72-28,62.72-66.42s-29-66.42-67.4-66.42Zm229.65,96.93c-17.73,0-29.74-12.79-29.74-30.51s12.08-30.52,29.74-30.52,29.74,12.79,29.74,30.52S894.57,257.27,876.91,257.27Zm0-96.93c-39.09,0-67.14,27.27-67.14,66.42s28.05,66.42,67.14,66.42,67.14-27.27,67.14-66.42S916,160.34,876.91,160.34Zm-154.4,70.57v59.74h36.88V230.91c0-18.18,11.56-31.75,29.74-31.75h15.71V162.74H789.13c-40.84,0-66.68,18.44-66.68,68.11Zm550.2-34.67c11.56,0,22.4,6.62,25.58,16.49h38.37c-4.93-31-30.71-52.39-63.69-52.39-37.85,0-65.9,28-65.9,66.42s28,66.42,65.9,66.42c33,0,58.76-21.43,63.69-52.4h-38.37c-3.18,9.87-14,16.49-25.58,16.49-16.23,0-28.31-13-28.31-30.51S1256.48,196.24,1272.71,196.24ZM1015.27,122H978.39v31.88c0,5.65-3.18,8.83-8.83,8.83H947.68v33.44h30.71v44c0,34.41,18.18,51.62,49.93,51.62a232.34,232.34,0,0,0,31-1.95V254.48a190.51,190.51,0,0,1-23.37,1.5c-14.48,0-20.65-5.39-20.65-19.68V196.24h44V162.8h-44Zm396.9,135.24c-17.72,0-29.73-12.79-29.73-30.51s12.07-30.52,29.73-30.52,29.74,12.79,29.74,30.52S1429.83,257.27,1412.17,257.27Zm0-96.93c-39.08,0-67.13,27.27-67.13,66.42s28,66.42,67.13,66.42,67.14-27.27,67.14-66.42S1451.26,160.34,1412.17,160.34Zm75.9,130.37H1525V122h-36.88V290.71Zm-356.25-33.44c-17.73,0-29.74-12.79-29.74-30.51s12.08-30.52,29.74-30.52,29.73,12.79,29.73,30.52S1149.48,257.27,1131.82,257.27Zm0-96.93c-39.09,0-67.14,27.27-67.14,66.42s28,66.42,67.14,66.42S1199,265.91,1199,226.76,1170.9,160.34,1131.82,160.34Z"/><path class="cls-2" d="M519.33,207.61a24.23,24.23,0,1,0,24.24-24.3A24.48,24.48,0,0,0,519.33,207.61Z"/><path class="cls-1" d="M519.33,269a24.23,24.23,0,1,0,24.23-24.29A24.47,24.47,0,0,0,519.33,269"/></g></svg>